<svg width="711" height="108" viewBox="0 0 711 108" fill="none" xmlns="http://www.w3.org/2000/svg">
    <rect width="709.913" height="40" rx="8" transform="matrix(1 0 0 -1 0.116119 40.6473)" fill="#191B20"/>
    <rect x="4.50928" y="44.9297" width="705.52" height="62.2948" rx="5" fill="#242731" fill-opacity="0.4"/>
    <path d="M371.809 17.4533H373.127V22.2048C373.127 22.7256 373.004 23.1837 372.757 23.5791C372.513 23.9744 372.17 24.2834 371.727 24.5059C371.285 24.7261 370.768 24.8362 370.176 24.8362C369.581 24.8362 369.063 24.7261 368.62 24.5059C368.178 24.2834 367.834 23.9744 367.59 23.5791C367.347 23.1837 367.225 22.7256 367.225 22.2048V17.4533H368.542V22.0947C368.542 22.3977 368.608 22.6676 368.741 22.9043C368.876 23.1411 369.065 23.3269 369.309 23.4619C369.553 23.5944 369.842 23.6607 370.176 23.6607C370.509 23.6607 370.798 23.5944 371.042 23.4619C371.288 23.3269 371.478 23.1411 371.61 22.9043C371.743 22.6676 371.809 22.3977 371.809 22.0947V17.4533ZM379.511 19.4526C379.478 19.1425 379.338 18.901 379.092 18.7282C378.848 18.5554 378.531 18.469 378.14 18.469C377.866 18.469 377.63 18.5104 377.434 18.5933C377.237 18.6761 377.087 18.7886 376.983 18.9306C376.878 19.0727 376.825 19.2348 376.823 19.4171C376.823 19.5686 376.857 19.7 376.926 19.8113C376.997 19.9226 377.093 20.0173 377.213 20.0954C377.334 20.1711 377.468 20.2351 377.615 20.2872C377.762 20.3392 377.909 20.383 378.059 20.4185L378.74 20.589C379.015 20.6529 379.279 20.7393 379.532 20.8482C379.788 20.9571 380.016 21.0944 380.218 21.2602C380.421 21.4259 380.582 21.6259 380.701 21.8603C380.819 22.0947 380.878 22.3693 380.878 22.6842C380.878 23.1103 380.769 23.4855 380.552 23.8099C380.334 24.1319 380.019 24.384 379.607 24.5663C379.197 24.7462 378.701 24.8362 378.119 24.8362C377.553 24.8362 377.062 24.7486 376.645 24.5734C376.231 24.3982 375.907 24.1425 375.672 23.8063C375.44 23.4702 375.315 23.0606 375.296 22.5776H376.592C376.611 22.831 376.689 23.0417 376.826 23.2097C376.964 23.3778 377.142 23.5033 377.363 23.5862C377.585 23.669 377.834 23.7104 378.108 23.7104C378.395 23.7104 378.646 23.6678 378.861 23.5826C379.079 23.495 379.249 23.3743 379.373 23.2204C379.496 23.0641 379.558 22.8819 379.561 22.6735C379.558 22.4841 379.503 22.3279 379.394 22.2048C379.285 22.0793 379.132 21.9751 378.936 21.8923C378.742 21.807 378.514 21.7313 378.254 21.665L377.427 21.4519C376.828 21.298 376.354 21.0649 376.006 20.7524C375.66 20.4375 375.488 20.0196 375.488 19.4988C375.488 19.0703 375.604 18.6951 375.836 18.3731C376.07 18.0511 376.388 17.8014 376.791 17.6238C377.193 17.4439 377.649 17.3539 378.158 17.3539C378.674 17.3539 379.126 17.4439 379.515 17.6238C379.905 17.8014 380.212 18.0488 380.434 18.366C380.657 18.6809 380.772 19.0431 380.779 19.4526H379.511ZM383.053 24.7261V17.4533H387.783V18.5578H384.37V20.5322H387.538V21.6366H384.37V23.6217H387.811V24.7261H383.053ZM390.127 24.7261V17.4533H392.854C393.413 17.4533 393.882 17.5504 394.261 17.7445C394.642 17.9387 394.929 18.2109 395.123 18.5613C395.32 18.9093 395.418 19.3153 395.418 19.7793C395.418 20.2457 395.319 20.6506 395.12 20.9938C394.923 21.3347 394.633 21.5987 394.25 21.7857C393.866 21.9704 393.395 22.0627 392.837 22.0627H390.894V20.969H392.659C392.986 20.969 393.253 20.924 393.462 20.834C393.67 20.7417 393.824 20.6079 393.923 20.4328C394.025 20.2552 394.076 20.0374 394.076 19.7793C394.076 19.5213 394.025 19.3011 393.923 19.1188C393.821 18.9342 393.666 18.7945 393.458 18.6998C393.25 18.6027 392.981 18.5542 392.652 18.5542H391.444V24.7261H390.127ZM393.884 21.4306L395.685 24.7261H394.214L392.446 21.4306H393.884ZM402.045 24.7261H400.639L403.199 17.4533H404.826L407.39 24.7261H405.984L404.041 18.9448H403.984L402.045 24.7261ZM402.091 21.8745H405.927V22.9328H402.091V21.8745ZM415.231 19.9072H413.903C413.865 19.6894 413.795 19.4964 413.693 19.3283C413.592 19.1579 413.465 19.0135 413.313 18.8951C413.162 18.7767 412.989 18.688 412.795 18.6288C412.603 18.5672 412.396 18.5364 412.174 18.5364C411.778 18.5364 411.428 18.6359 411.122 18.8347C410.817 19.0312 410.578 19.3201 410.405 19.7012C410.232 20.08 410.146 20.5428 410.146 21.0897C410.146 21.6461 410.232 22.1148 410.405 22.496C410.58 22.8747 410.819 23.1612 411.122 23.3553C411.428 23.5471 411.777 23.643 412.17 23.643C412.388 23.643 412.591 23.6146 412.781 23.5578C412.973 23.4986 413.144 23.4122 413.296 23.2985C413.45 23.1849 413.579 23.0452 413.683 22.8795C413.789 22.7138 413.863 22.5244 413.903 22.3113L415.231 22.3184C415.181 22.664 415.074 22.9884 414.908 23.2914C414.745 23.5944 414.53 23.862 414.265 24.094C414 24.3236 413.69 24.5035 413.335 24.6337C412.98 24.7616 412.585 24.8255 412.152 24.8255C411.513 24.8255 410.942 24.6775 410.441 24.3816C409.939 24.0857 409.543 23.6584 409.254 23.0997C408.966 22.5409 408.821 21.871 408.821 21.0897C408.821 20.3061 408.967 19.6361 409.258 19.0798C409.549 18.5211 409.946 18.0937 410.448 17.7978C410.95 17.5019 411.518 17.3539 412.152 17.3539C412.557 17.3539 412.933 17.4107 413.281 17.5244C413.629 17.638 413.94 17.8049 414.212 18.0251C414.484 18.2429 414.708 18.5104 414.883 18.8276C415.061 19.1425 415.177 19.5024 415.231 19.9072ZM423.663 19.9072H422.335C422.297 19.6894 422.227 19.4964 422.125 19.3283C422.023 19.1579 421.897 19.0135 421.745 18.8951C421.594 18.7767 421.421 18.688 421.227 18.6288C421.035 18.5672 420.828 18.5364 420.605 18.5364C420.21 18.5364 419.859 18.6359 419.554 18.8347C419.249 19.0312 419.01 19.3201 418.837 19.7012C418.664 20.08 418.577 20.5428 418.577 21.0897C418.577 21.6461 418.664 22.1148 418.837 22.496C419.012 22.8747 419.251 23.1612 419.554 23.3553C419.859 23.5471 420.209 23.643 420.602 23.643C420.819 23.643 421.023 23.6146 421.212 23.5578C421.404 23.4986 421.576 23.4122 421.727 23.2985C421.881 23.1849 422.01 23.0452 422.114 22.8795C422.221 22.7138 422.294 22.5244 422.335 22.3113L423.663 22.3184C423.613 22.664 423.505 22.9884 423.34 23.2914C423.176 23.5944 422.962 23.862 422.697 24.094C422.432 24.3236 422.121 24.5035 421.766 24.6337C421.411 24.7616 421.017 24.8255 420.584 24.8255C419.945 24.8255 419.374 24.6775 418.872 24.3816C418.37 24.0857 417.975 23.6584 417.686 23.0997C417.397 22.5409 417.253 21.871 417.253 21.0897C417.253 20.3061 417.398 19.6361 417.69 19.0798C417.981 18.5211 418.377 18.0937 418.879 17.7978C419.381 17.5019 419.949 17.3539 420.584 17.3539C420.989 17.3539 421.365 17.4107 421.713 17.5244C422.061 17.638 422.371 17.8049 422.644 18.0251C422.916 18.2429 423.139 18.5104 423.315 18.8276C423.492 19.1425 423.608 19.5024 423.663 19.9072ZM432.368 21.0897C432.368 21.8733 432.221 22.5445 431.927 23.1032C431.636 23.6595 431.239 24.0857 430.734 24.3816C430.232 24.6775 429.663 24.8255 429.026 24.8255C428.389 24.8255 427.819 24.6775 427.314 24.3816C426.813 24.0833 426.415 23.656 426.121 23.0997C425.83 22.5409 425.685 21.871 425.685 21.0897C425.685 20.3061 425.83 19.6361 426.121 19.0798C426.415 18.5211 426.813 18.0937 427.314 17.7978C427.819 17.5019 428.389 17.3539 429.026 17.3539C429.663 17.3539 430.232 17.5019 430.734 17.7978C431.239 18.0937 431.636 18.5211 431.927 19.0798C432.221 19.6361 432.368 20.3061 432.368 21.0897ZM431.043 21.0897C431.043 20.5381 430.957 20.0729 430.784 19.6941C430.614 19.313 430.377 19.0253 430.074 18.8312C429.771 18.6347 429.422 18.5364 429.026 18.5364C428.631 18.5364 428.282 18.6347 427.979 18.8312C427.676 19.0253 427.438 19.313 427.265 19.6941C427.094 20.0729 427.009 20.5381 427.009 21.0897C427.009 21.6413 427.094 22.1077 427.265 22.4889C427.438 22.8676 427.676 23.1553 427.979 23.3518C428.282 23.5459 428.631 23.643 429.026 23.643C429.422 23.643 429.771 23.5459 430.074 23.3518C430.377 23.1553 430.614 22.8676 430.784 22.4889C430.957 22.1077 431.043 21.6413 431.043 21.0897ZM439.198 17.4533H440.515V22.2048C440.515 22.7256 440.392 23.1837 440.146 23.5791C439.902 23.9744 439.559 24.2834 439.116 24.5059C438.673 24.7261 438.156 24.8362 437.564 24.8362C436.97 24.8362 436.452 24.7261 436.009 24.5059C435.566 24.2834 435.223 23.9744 434.979 23.5791C434.735 23.1837 434.613 22.7256 434.613 22.2048V17.4533H435.931V22.0947C435.931 22.3977 435.997 22.6676 436.13 22.9043C436.265 23.1411 436.454 23.3269 436.698 23.4619C436.942 23.5944 437.231 23.6607 437.564 23.6607C437.898 23.6607 438.187 23.5944 438.431 23.4619C438.677 23.3269 438.866 23.1411 438.999 22.9043C439.132 22.6676 439.198 22.3977 439.198 22.0947V17.4533ZM448.924 17.4533V24.7261H447.752L444.325 19.7722H444.265V24.7261H442.947V17.4533H444.126L447.55 22.4107H447.614V17.4533H448.924ZM451.04 18.5578V17.4533H456.842V18.5578H454.595V24.7261H453.288V18.5578H451.04Z" fill="#808191"/>
    <path d="M360.84 81.271C360.021 81.271 359.318 81.0639 358.732 80.6496C358.148 80.232 357.699 79.6304 357.384 78.8449C357.073 78.0561 356.917 77.1065 356.917 75.9962C356.92 74.8859 357.078 73.9413 357.389 73.1624C357.704 72.3802 358.153 71.7836 358.737 71.3726C359.323 70.9616 360.024 70.7561 360.84 70.7561C361.655 70.7561 362.356 70.9616 362.943 71.3726C363.529 71.7836 363.978 72.3802 364.29 73.1624C364.605 73.9446 364.762 74.8892 364.762 75.9962C364.762 77.1098 364.605 78.061 364.29 78.8499C363.978 79.6354 363.529 80.2353 362.943 80.6496C362.359 81.0639 361.658 81.271 360.84 81.271ZM360.84 79.7149C361.476 79.7149 361.978 79.4017 362.346 78.7753C362.717 78.1456 362.903 77.2192 362.903 75.9962C362.903 75.1875 362.818 74.508 362.649 73.9578C362.48 73.4076 362.242 72.9933 361.933 72.7149C361.625 72.4332 361.261 72.2923 360.84 72.2923C360.207 72.2923 359.706 72.6072 359.338 73.2369C358.97 73.8634 358.785 74.7831 358.781 75.9962C358.778 76.8082 358.859 77.491 359.025 78.0445C359.194 78.598 359.433 79.0156 359.741 79.2973C360.049 79.5757 360.415 79.7149 360.84 79.7149ZM367.906 73.4408L369.447 76.2597L371.013 73.4408H372.917L370.615 77.259L372.957 81.0771H371.063L369.447 78.3279L367.846 81.0771H365.937L368.264 77.259L365.996 73.4408H367.906ZM374.389 81.0771V70.8953H380.911V72.4415H376.233V75.2057H380.464V76.7519H376.233V81.0771H374.389ZM382.592 81.0771V70.8953H384.391V74.7036H384.466C384.559 74.518 384.69 74.3208 384.859 74.1119C385.028 73.8998 385.256 73.7192 385.545 73.57C385.833 73.4176 386.201 73.3414 386.648 73.3414C387.238 73.3414 387.77 73.4922 388.244 73.7938C388.722 74.0921 389.099 74.5345 389.378 75.1212C389.66 75.7045 389.8 76.4204 389.8 77.2689C389.8 78.1075 389.663 78.82 389.388 79.4067C389.113 79.9933 388.738 80.4408 388.264 80.749C387.79 81.0573 387.253 81.2114 386.653 81.2114C386.216 81.2114 385.853 81.1385 385.565 80.9926C385.276 80.8468 385.044 80.6711 384.869 80.4656C384.696 80.2568 384.562 80.0596 384.466 79.874H384.362V81.0771H382.592ZM384.357 77.259C384.357 77.7528 384.426 78.1853 384.565 78.5566C384.708 78.9278 384.912 79.2178 385.177 79.4266C385.445 79.6321 385.77 79.7348 386.151 79.7348C386.549 79.7348 386.882 79.6288 387.151 79.4166C387.419 79.2012 387.621 78.9079 387.757 78.5367C387.896 78.1621 387.966 77.7362 387.966 77.259C387.966 76.785 387.898 76.3641 387.762 75.9962C387.626 75.6283 387.424 75.3399 387.156 75.1311C386.887 74.9223 386.552 74.8179 386.151 74.8179C385.767 74.8179 385.44 74.919 385.172 75.1212C384.903 75.3234 384.7 75.6067 384.56 75.9713C384.425 76.3359 384.357 76.7651 384.357 77.259ZM391.41 81.0771V70.8953H398.032V72.4415H393.254V75.2057H397.689V76.7519H393.254V79.531H398.072V81.0771H391.41ZM400.943 81.1865C400.641 81.1865 400.383 81.0805 400.167 80.8683C399.952 80.6562 399.846 80.3977 399.849 80.0928C399.846 79.7945 399.952 79.5393 400.167 79.3271C400.383 79.115 400.641 79.009 400.943 79.009C401.235 79.009 401.488 79.115 401.704 79.3271C401.922 79.5393 402.033 79.7945 402.037 80.0928C402.033 80.295 401.98 80.4789 401.878 80.6446C401.778 80.8103 401.646 80.9429 401.48 81.0423C401.318 81.1385 401.139 81.1865 400.943 81.1865ZM405.004 81.1865C404.702 81.1865 404.443 81.0805 404.228 80.8683C404.013 80.6562 403.907 80.3977 403.91 80.0928C403.907 79.7945 404.013 79.5393 404.228 79.3271C404.443 79.115 404.702 79.009 405.004 79.009C405.295 79.009 405.549 79.115 405.764 79.3271C405.983 79.5393 406.094 79.7945 406.097 80.0928C406.094 80.295 406.041 80.4789 405.938 80.6446C405.839 80.8103 405.706 80.9429 405.541 81.0423C405.378 81.1385 405.199 81.1865 405.004 81.1865ZM411.303 81.271C410.484 81.271 409.781 81.0639 409.195 80.6496C408.611 80.232 408.162 79.6304 407.847 78.8449C407.536 78.0561 407.38 77.1065 407.38 75.9962C407.383 74.8859 407.541 73.9413 407.852 73.1624C408.167 72.3802 408.616 71.7836 409.2 71.3726C409.786 70.9616 410.487 70.7561 411.303 70.7561C412.118 70.7561 412.819 70.9616 413.406 71.3726C413.992 71.7836 414.441 72.3802 414.753 73.1624C415.068 73.9446 415.225 74.8892 415.225 75.9962C415.225 77.1098 415.068 78.061 414.753 78.8499C414.441 79.6354 413.992 80.2353 413.406 80.6496C412.822 81.0639 412.121 81.271 411.303 81.271ZM411.303 79.7149C411.939 79.7149 412.441 79.4017 412.809 78.7753C413.18 78.1456 413.366 77.2192 413.366 75.9962C413.366 75.1875 413.281 74.508 413.112 73.9578C412.943 73.4076 412.705 72.9933 412.396 72.7149C412.088 72.4332 411.724 72.2923 411.303 72.2923C410.67 72.2923 410.169 72.6072 409.801 73.2369C409.433 73.8634 409.248 74.7831 409.244 75.9962C409.241 76.8082 409.322 77.491 409.488 78.0445C409.657 78.598 409.896 79.0156 410.204 79.2973C410.512 79.5757 410.878 79.7149 411.303 79.7149ZM420.765 73.4408V74.8328H416.251V73.4408H420.765ZM417.379 81.0771V72.7199C417.379 72.2062 417.485 71.7786 417.697 71.4372C417.913 71.0959 418.201 70.8406 418.562 70.6716C418.924 70.5026 419.325 70.4181 419.765 70.4181C420.077 70.4181 420.354 70.4429 420.596 70.4926C420.838 70.5423 421.017 70.5871 421.133 70.6269L420.775 72.0189C420.698 71.9957 420.602 71.9725 420.486 71.9493C420.37 71.9228 420.241 71.9095 420.099 71.9095C419.764 71.9095 419.527 71.9907 419.388 72.1531C419.252 72.3122 419.184 72.5409 419.184 72.8392V81.0771H417.379ZM425.694 81.2164C425.031 81.2164 424.438 81.0921 423.914 80.8435C423.391 80.5916 422.975 80.2469 422.666 79.8094C422.361 79.3719 422.199 78.8714 422.179 78.308H423.969C424.002 78.7256 424.183 79.067 424.511 79.3321C424.839 79.594 425.233 79.7249 425.694 79.7249C426.055 79.7249 426.377 79.642 426.659 79.4763C426.94 79.3106 427.162 79.0802 427.325 78.7852C427.487 78.4903 427.567 78.1539 427.563 77.776C427.567 77.3915 427.486 77.0502 427.32 76.7519C427.154 76.4536 426.927 76.2199 426.639 76.0509C426.35 75.8785 426.019 75.7923 425.644 75.7923C425.339 75.789 425.04 75.8454 424.745 75.9614C424.45 76.0774 424.216 76.2298 424.044 76.4188L422.378 76.1453L422.91 70.8953H428.816V72.4365H424.436L424.143 75.1361H424.203C424.392 74.914 424.658 74.7301 425.003 74.5843C425.348 74.4351 425.726 74.3605 426.137 74.3605C426.753 74.3605 427.303 74.5064 427.787 74.798C428.271 75.0864 428.652 75.4841 428.931 75.9912C429.209 76.4983 429.348 77.0783 429.348 77.7313C429.348 78.4041 429.192 79.004 428.881 79.531C428.573 80.0547 428.143 80.4673 427.593 80.7689C427.046 81.0672 426.413 81.2164 425.694 81.2164ZM434.633 81.2164C433.894 81.2164 433.238 81.0921 432.664 80.8435C432.094 80.5949 431.647 80.2552 431.322 79.8243C431 79.3901 430.841 78.8979 430.845 78.3477C430.841 77.9202 430.934 77.5274 431.123 77.1695C431.312 76.8115 431.567 76.5132 431.889 76.2746C432.214 76.0326 432.575 75.8785 432.973 75.8122V75.7426C432.449 75.6266 432.025 75.3598 431.7 74.9422C431.378 74.5213 431.219 74.0357 431.223 73.4855C431.219 72.9619 431.365 72.4945 431.66 72.0835C431.955 71.6726 432.359 71.3494 432.873 71.1141C433.387 70.8754 433.973 70.7561 434.633 70.7561C435.286 70.7561 435.868 70.8754 436.378 71.1141C436.892 71.3494 437.296 71.6726 437.591 72.0835C437.889 72.4945 438.039 72.9619 438.039 73.4855C438.039 74.0357 437.875 74.5213 437.546 74.9422C437.222 75.3598 436.802 75.6266 436.289 75.7426V75.8122C436.686 75.8785 437.044 76.0326 437.362 76.2746C437.684 76.5132 437.939 76.8115 438.128 77.1695C438.32 77.5274 438.416 77.9202 438.416 78.3477C438.416 78.8979 438.254 79.3901 437.929 79.8243C437.604 80.2552 437.157 80.5949 436.587 80.8435C436.02 81.0921 435.369 81.2164 434.633 81.2164ZM434.633 79.7945C435.014 79.7945 435.346 79.7298 435.627 79.6006C435.909 79.468 436.128 79.2824 436.284 79.0438C436.439 78.8051 436.519 78.53 436.522 78.2185C436.519 77.8937 436.434 77.607 436.269 77.3584C436.106 77.1065 435.883 76.9093 435.598 76.7668C435.316 76.6243 434.994 76.553 434.633 76.553C434.268 76.553 433.944 76.6243 433.659 76.7668C433.374 76.9093 433.148 77.1065 432.982 77.3584C432.82 77.607 432.741 77.8937 432.744 78.2185C432.741 78.53 432.817 78.8051 432.973 79.0438C433.128 79.2791 433.347 79.463 433.629 79.5956C433.914 79.7282 434.249 79.7945 434.633 79.7945ZM434.633 75.156C434.945 75.156 435.22 75.093 435.458 74.9671C435.7 74.8411 435.891 74.6655 436.03 74.4401C436.169 74.2147 436.241 73.9545 436.244 73.6595C436.241 73.3679 436.171 73.1127 436.035 72.8939C435.899 72.6718 435.71 72.5012 435.468 72.3818C435.226 72.2592 434.948 72.1979 434.633 72.1979C434.312 72.1979 434.028 72.2592 433.783 72.3818C433.541 72.5012 433.352 72.6718 433.216 72.8939C433.084 73.1127 433.019 73.3679 433.022 73.6595C433.019 73.9545 433.085 74.2147 433.221 74.4401C433.36 74.6621 433.551 74.8378 433.793 74.9671C434.038 75.093 434.318 75.156 434.633 75.156ZM441.458 81.0771H439.489L443.074 70.8953H445.351L448.94 81.0771H446.971L444.252 72.9834H444.172L441.458 81.0771ZM441.522 77.085H446.892V78.5665H441.522V77.085ZM450.555 81.0771L454.885 72.5061V72.4365H449.859V70.8953H456.794V72.4713L452.469 81.0771H450.555ZM461.948 81.0771H458.498V70.8953H462.018C463.029 70.8953 463.897 71.0992 464.623 71.5068C465.352 71.9112 465.912 72.4929 466.303 73.2519C466.694 74.0109 466.89 74.919 466.89 75.9763C466.89 77.0369 466.693 77.9484 466.298 78.7107C465.907 79.473 465.342 80.058 464.603 80.4656C463.867 80.8733 462.982 81.0771 461.948 81.0771ZM460.342 79.4813H461.859C462.568 79.4813 463.16 79.352 463.634 79.0935C464.108 78.8316 464.464 78.4422 464.702 77.9252C464.941 77.4048 465.06 76.7552 465.06 75.9763C465.06 75.1974 464.941 74.5511 464.702 74.0374C464.464 73.5203 464.111 73.1342 463.644 72.879C463.179 72.6205 462.603 72.4912 461.913 72.4912H460.342V79.4813Z" fill="white"/>
    <path d="M52.7314 24.7261H51.3251L53.8855 17.4533H55.5119L58.0758 24.7261H56.6696L54.7271 18.9448H54.6703L52.7314 24.7261ZM52.7775 21.8745H56.6127V22.9328H52.7775V21.8745ZM63.869 19.4526C63.8358 19.1425 63.6961 18.901 63.4499 18.7282C63.2061 18.5554 62.8888 18.469 62.4982 18.469C62.2236 18.469 61.988 18.5104 61.7915 18.5933C61.5951 18.6761 61.4447 18.7886 61.3406 18.9306C61.2364 19.0727 61.1831 19.2348 61.1808 19.4171C61.1808 19.5686 61.2151 19.7 61.2837 19.8113C61.3548 19.9226 61.4506 20.0173 61.5714 20.0954C61.6921 20.1711 61.8259 20.2351 61.9727 20.2872C62.1194 20.3392 62.2674 20.383 62.4165 20.4185L63.0984 20.589C63.373 20.6529 63.637 20.7393 63.8903 20.8482C64.146 20.9571 64.3744 21.0944 64.5756 21.2602C64.7792 21.4259 64.9402 21.6259 65.0586 21.8603C65.177 22.0947 65.2362 22.3693 65.2362 22.6842C65.2362 23.1103 65.1272 23.4855 64.9094 23.8099C64.6916 24.1319 64.3768 24.384 63.9648 24.5663C63.5553 24.7462 63.0593 24.8362 62.4769 24.8362C61.9111 24.8362 61.4199 24.7486 61.0032 24.5734C60.5889 24.3982 60.2646 24.1425 60.0302 23.8063C59.7982 23.4702 59.6727 23.0606 59.6538 22.5776H60.9499C60.9689 22.831 61.047 23.0417 61.1843 23.2097C61.3216 23.3778 61.5004 23.5033 61.7205 23.5862C61.9431 23.669 62.1916 23.7104 62.4663 23.7104C62.7527 23.7104 63.0037 23.6678 63.2191 23.5826C63.4369 23.495 63.6074 23.3743 63.7305 23.2204C63.8536 23.0641 63.9163 22.8819 63.9187 22.6735C63.9163 22.4841 63.8607 22.3279 63.7518 22.2048C63.6429 22.0793 63.4902 21.9751 63.2937 21.8923C63.0996 21.807 62.8723 21.7313 62.6119 21.665L61.7844 21.4519C61.1855 21.298 60.712 21.0649 60.364 20.7524C60.0183 20.4375 59.8455 20.0196 59.8455 19.4988C59.8455 19.0703 59.9615 18.6951 60.1935 18.3731C60.4279 18.0511 60.7463 17.8014 61.1488 17.6238C61.5513 17.4439 62.007 17.3539 62.516 17.3539C63.0321 17.3539 63.4843 17.4439 63.8725 17.6238C64.2631 17.8014 64.5697 18.0488 64.7923 18.366C65.0148 18.6809 65.1296 19.0431 65.1367 19.4526H63.869ZM71.3631 19.4526C71.33 19.1425 71.1903 18.901 70.9441 18.7282C70.7002 18.5554 70.383 18.469 69.9924 18.469C69.7177 18.469 69.4822 18.5104 69.2857 18.5933C69.0892 18.6761 68.9389 18.7886 68.8347 18.9306C68.7305 19.0727 68.6773 19.2348 68.6749 19.4171C68.6749 19.5686 68.7092 19.7 68.7779 19.8113C68.8489 19.9226 68.9448 20.0173 69.0655 20.0954C69.1863 20.1711 69.32 20.2351 69.4668 20.2872C69.6136 20.3392 69.7615 20.383 69.9107 20.4185L70.5925 20.589C70.8671 20.6529 71.1311 20.7393 71.3844 20.8482C71.6401 20.9571 71.8685 21.0944 72.0698 21.2602C72.2734 21.4259 72.4344 21.6259 72.5527 21.8603C72.6711 22.0947 72.7303 22.3693 72.7303 22.6842C72.7303 23.1103 72.6214 23.4855 72.4036 23.8099C72.1858 24.1319 71.8709 24.384 71.459 24.5663C71.0494 24.7462 70.5534 24.8362 69.9711 24.8362C69.4052 24.8362 68.914 24.7486 68.4973 24.5734C68.083 24.3982 67.7587 24.1425 67.5243 23.8063C67.2923 23.4702 67.1668 23.0606 67.1479 22.5776H68.4441C68.463 22.831 68.5411 23.0417 68.6784 23.2097C68.8158 23.3778 68.9945 23.5033 69.2147 23.5862C69.4372 23.669 69.6858 23.7104 69.9604 23.7104C70.2469 23.7104 70.4978 23.6678 70.7132 23.5826C70.931 23.495 71.1015 23.3743 71.2246 23.2204C71.3477 23.0641 71.4105 22.8819 71.4128 22.6735C71.4105 22.4841 71.3548 22.3279 71.2459 22.2048C71.137 22.0793 70.9843 21.9751 70.7878 21.8923C70.5937 21.807 70.3664 21.7313 70.106 21.665L69.2786 21.4519C68.6796 21.298 68.2061 21.0649 67.8581 20.7524C67.5125 20.4375 67.3397 20.0196 67.3397 19.4988C67.3397 19.0703 67.4557 18.6951 67.6877 18.3731C67.9221 18.0511 68.2405 17.8014 68.6429 17.6238C69.0454 17.4439 69.5011 17.3539 70.0101 17.3539C70.5262 17.3539 70.9784 17.4439 71.3667 17.6238C71.7573 17.8014 72.0639 18.0488 72.2864 18.366C72.5089 18.6809 72.6238 19.0431 72.6309 19.4526H71.3631ZM74.9048 24.7261V17.4533H79.6349V18.5578H76.2223V20.5322H79.3899V21.6366H76.2223V23.6217H79.6634V24.7261H74.9048ZM81.6594 18.5578V17.4533H87.462V18.5578H85.2141V24.7261H83.9073V18.5578H81.6594Z" fill="#808191"/>
    <ellipse cx="39.9482" cy="76.0771" rx="13.7231" ry="13.5" fill="#FF9F38"/>
    <path fill-rule="evenodd" clip-rule="evenodd" d="M46.2034 73.8613C46.4774 72.0883 45.0839 71.135 43.1799 70.4988L43.7977 68.0965L42.2899 67.7327L41.6878 70.0717C41.2998 69.9772 40.9019 69.8893 40.5045 69.8015L40.5045 69.8015L40.4792 69.7959L41.0857 67.4417L39.5778 67.0771L38.96 69.4787L38.8941 69.4641L38.8941 69.4641C38.5887 69.3964 38.2881 69.3298 37.9967 69.2587L37.9984 69.2511L35.9182 68.7478L35.5168 70.3094C35.5168 70.3094 36.6363 70.5581 36.6127 70.5733C37.2236 70.7213 37.3335 71.113 37.3152 71.4243L36.6119 74.1608C36.6538 74.1709 36.7079 74.1862 36.7689 74.209L36.6092 74.1709L35.6232 78.0046C35.5482 78.1839 35.3588 78.4538 34.9312 78.3514C34.947 78.3725 33.8353 78.0866 33.8353 78.0866L33.0866 79.7598L35.0499 80.2344C35.2607 80.2857 35.4692 80.3385 35.6754 80.3907L35.6757 80.3907C35.8263 80.4288 35.9757 80.4666 36.1241 80.5034L35.5002 82.9328L37.0072 83.2966L37.625 80.8942C38.0368 81.0016 38.4365 81.1014 38.8274 81.1962L38.2113 83.5884L39.7192 83.9521L40.3431 81.5278C42.9155 81.9998 44.8492 81.8095 45.6633 79.5543C46.3195 77.739 45.631 76.6909 44.2776 76.0082C45.2637 75.7883 46.0054 75.1598 46.2034 73.8613ZM42.7565 78.5458C42.3298 80.2119 39.64 79.5231 38.4088 79.2078C38.2979 79.1794 38.1988 79.1541 38.1143 79.1337L38.9432 75.915C39.0463 75.94 39.1723 75.9675 39.3151 75.9985L39.3152 75.9986C40.5887 76.2759 43.1951 76.8435 42.7565 78.5458ZM39.571 74.5048C40.5969 74.7703 42.8339 75.3493 43.2234 73.8353C43.6218 72.2867 41.4471 71.8204 40.3849 71.5926C40.2651 71.5669 40.1595 71.5443 40.0733 71.5234L39.3229 74.4418C39.394 74.459 39.4774 74.4806 39.571 74.5048Z" fill="white"/>
    <path d="M67.0485 73.2021V63.0203H70.9462C71.682 63.0203 72.2935 63.1363 72.7808 63.3683C73.2713 63.597 73.6375 63.9102 73.8795 64.308C74.1247 64.7057 74.2474 65.1565 74.2474 65.6602C74.2474 66.0745 74.1678 66.4292 74.0087 66.7242C73.8496 67.0158 73.6359 67.2528 73.3674 67.4351C73.0989 67.6174 72.799 67.7483 72.4675 67.8279V67.9273C72.8288 67.9472 73.1752 68.0582 73.5066 68.2604C73.8414 68.4593 74.1148 68.741 74.3269 69.1056C74.539 69.4701 74.6451 69.911 74.6451 70.428C74.6451 70.955 74.5175 71.4289 74.2623 71.8499C74.0071 72.2675 73.6226 72.5973 73.1089 72.8392C72.5952 73.0812 71.9488 73.2021 71.17 73.2021H67.0485ZM68.893 71.661H70.8766C71.5461 71.661 72.0284 71.5334 72.3234 71.2781C72.6217 71.0196 72.7708 70.6882 72.7708 70.2838C72.7708 69.9822 72.6962 69.7104 72.5471 69.4685C72.3979 69.2232 72.1858 69.031 71.9107 68.8918C71.6356 68.7493 71.3075 68.678 70.9264 68.678H68.893V71.661ZM68.893 67.3506H70.7175C71.0357 67.3506 71.3224 67.2926 71.5776 67.1766C71.8328 67.0573 72.0334 66.8899 72.1792 66.6744C72.3283 66.4557 72.4029 66.1972 72.4029 65.8989C72.4029 65.5045 72.2637 65.1797 71.9853 64.9244C71.7102 64.6692 71.3009 64.5416 70.7573 64.5416H68.893V67.3506ZM76.1701 73.2021V65.5658H77.9699V73.2021H76.1701ZM77.075 64.482C76.7899 64.482 76.5447 64.3875 76.3392 64.1986C76.1337 64.0064 76.0309 63.776 76.0309 63.5075C76.0309 63.2358 76.1337 63.0054 76.3392 62.8165C76.5447 62.6243 76.7899 62.5281 77.075 62.5281C77.3633 62.5281 77.6086 62.6243 77.8108 62.8165C78.0163 63.0054 78.119 63.2358 78.119 63.5075C78.119 63.776 78.0163 64.0064 77.8108 64.1986C77.6086 64.3875 77.3633 64.482 77.075 64.482ZM83.6337 65.5658V66.9578H79.2438V65.5658H83.6337ZM80.3276 63.7362H82.1273V70.9053C82.1273 71.1472 82.1638 71.3328 82.2367 71.4621C82.313 71.588 82.4124 71.6742 82.535 71.7206C82.6577 71.767 82.7935 71.7902 82.9427 71.7902C83.0554 71.7902 83.1581 71.7819 83.2509 71.7654C83.347 71.7488 83.42 71.7339 83.4697 71.7206L83.7729 73.1276C83.6768 73.1607 83.5393 73.1972 83.3603 73.2369C83.1846 73.2767 82.9692 73.2999 82.714 73.3066C82.2632 73.3198 81.8572 73.2519 81.496 73.1027C81.1347 72.9503 80.848 72.7149 80.6359 72.3968C80.4271 72.0786 80.3243 71.6808 80.3276 71.2036V63.7362ZM88.3878 73.3513C87.6255 73.3513 86.9709 73.1839 86.424 72.8492C85.8805 72.5144 85.4612 72.0521 85.1662 71.4621C84.8746 70.8688 84.7287 70.186 84.7287 69.4138C84.7287 68.6382 84.8779 67.9538 85.1762 67.3605C85.4745 66.7639 85.8954 66.2999 86.439 65.9685C86.9858 65.6337 87.6321 65.4664 88.3779 65.4664C88.9977 65.4664 89.5462 65.5807 90.0235 65.8094C90.5041 66.0348 90.8869 66.3546 91.1719 66.7689C91.457 67.1799 91.6194 67.6605 91.6591 68.2107H89.939C89.8694 67.8428 89.7036 67.5362 89.4418 67.2909C89.1833 67.0423 88.8369 66.9181 88.4027 66.9181C88.0348 66.9181 87.7117 67.0175 87.4333 67.2164C87.1549 67.4119 86.9378 67.6936 86.782 68.0615C86.6295 68.4294 86.5533 68.8702 86.5533 69.384C86.5533 69.9043 86.6295 70.3518 86.782 70.7263C86.9345 71.0975 87.1482 71.3842 87.4233 71.5864C87.7017 71.7852 88.0282 71.8847 88.4027 71.8847C88.6679 71.8847 88.9049 71.835 89.1137 71.7355C89.3258 71.6328 89.5031 71.4853 89.6456 71.2931C89.7882 71.1008 89.8859 70.8672 89.939 70.5921H91.6591C91.616 71.1323 91.457 71.6112 91.1819 72.0289C90.9068 72.4432 90.5322 72.768 90.0583 73.0033C89.5843 73.2353 89.0275 73.3513 88.3878 73.3513ZM96.4679 73.3513C95.7222 73.3513 95.0759 73.1872 94.529 72.8591C93.9821 72.531 93.5579 72.0719 93.2563 71.482C92.958 70.892 92.8088 70.2026 92.8088 69.4138C92.8088 68.625 92.958 67.9339 93.2563 67.3406C93.5579 66.7474 93.9821 66.2867 94.529 65.9585C95.0759 65.6304 95.7222 65.4664 96.4679 65.4664C97.2136 65.4664 97.8599 65.6304 98.4068 65.9585C98.9537 66.2867 99.3763 66.7474 99.6746 67.3406C99.9762 67.9339 100.127 68.625 100.127 69.4138C100.127 70.2026 99.9762 70.892 99.6746 71.482C99.3763 72.0719 98.9537 72.531 98.4068 72.8591C97.8599 73.1872 97.2136 73.3513 96.4679 73.3513ZM96.4778 71.9095C96.8822 71.9095 97.2203 71.7985 97.492 71.5764C97.7638 71.3511 97.966 71.0494 98.0986 70.6716C98.2345 70.2938 98.3024 69.8728 98.3024 69.4088C98.3024 68.9415 98.2345 68.5189 98.0986 68.1411C97.966 67.7599 97.7638 67.4566 97.492 67.2313C97.2203 67.0059 96.8822 66.8932 96.4778 66.8932C96.0635 66.8932 95.7188 67.0059 95.4438 67.2313C95.172 67.4566 94.9681 67.7599 94.8322 68.1411C94.6997 68.5189 94.6334 68.9415 94.6334 69.4088C94.6334 69.8728 94.6997 70.2938 94.8322 70.6716C94.9681 71.0494 95.172 71.3511 95.4438 71.5764C95.7188 71.7985 96.0635 71.9095 96.4778 71.9095ZM101.655 73.2021V65.5658H103.454V73.2021H101.655ZM102.559 64.482C102.274 64.482 102.029 64.3875 101.824 64.1986C101.618 64.0064 101.515 63.776 101.515 63.5075C101.515 63.2358 101.618 63.0054 101.824 62.8165C102.029 62.6243 102.274 62.5281 102.559 62.5281C102.848 62.5281 103.093 62.6243 103.295 62.8165C103.501 63.0054 103.603 63.2358 103.603 63.5075C103.603 63.776 103.501 64.0064 103.295 64.1986C103.093 64.3875 102.848 64.482 102.559 64.482ZM107.105 68.7277V73.2021H105.305V65.5658H107.025V66.8634H107.115C107.29 66.4358 107.57 66.0961 107.955 65.8442C108.343 65.5923 108.821 65.4664 109.392 65.4664C109.919 65.4664 110.378 65.579 110.769 65.8044C111.163 66.0298 111.468 66.3563 111.683 66.7838C111.902 67.2114 112.01 67.7301 112.007 68.3399V73.2021H110.207V68.6183C110.207 68.1079 110.074 67.7085 109.809 67.4202C109.547 67.1318 109.184 66.9877 108.72 66.9877C108.406 66.9877 108.125 67.0573 107.88 67.1965C107.638 67.3324 107.448 67.5296 107.308 67.7881C107.173 68.0466 107.105 68.3598 107.105 68.7277Z" fill="white"/>
    <path d="M67.0031 90.9521V82.2249H70.1139C70.7928 82.2249 71.3553 82.3485 71.8014 82.5956C72.2474 82.8428 72.5812 83.1808 72.8028 83.6098C73.0244 84.036 73.1352 84.5161 73.1352 85.0502C73.1352 85.5871 73.0229 86.07 72.7985 86.499C72.5769 86.9252 72.2417 87.2632 71.7928 87.5132C71.3468 87.7604 70.7857 87.884 70.1096 87.884H67.9704V86.7675H69.9903C70.4193 86.7675 70.7673 86.6936 71.0343 86.5459C71.3014 86.3953 71.4974 86.1908 71.6224 85.9323C71.7474 85.6737 71.8099 85.3797 71.8099 85.0502C71.8099 84.7206 71.7474 84.428 71.6224 84.1723C71.4974 83.9166 71.2999 83.7164 71.03 83.5715C70.763 83.4266 70.4107 83.3541 69.9732 83.3541H68.3198V90.9521H67.0031ZM78.7229 88.2377V84.4067H80.0013V90.9521H78.7484V89.8186H78.6803C78.5297 90.1681 78.2882 90.4593 77.9558 90.6922C77.6263 90.9223 77.2158 91.0374 76.7243 91.0374C76.3038 91.0374 75.9317 90.945 75.6078 90.7604C75.2868 90.5729 75.034 90.2959 74.8493 89.9294C74.6675 89.5629 74.5766 89.1098 74.5766 88.57V84.4067H75.8507V88.4166C75.8507 88.8627 75.9743 89.2178 76.2215 89.482C76.4686 89.7462 76.7896 89.8783 77.1845 89.8783C77.4232 89.8783 77.6604 89.8186 77.8962 89.6993C78.1348 89.58 78.3322 89.3996 78.4885 89.1581C78.6476 88.9166 78.7257 88.6098 78.7229 88.2377ZM84.7687 84.4067V85.4294H81.1934V84.4067H84.7687ZM82.1522 82.8385H83.4264V89.0303C83.4264 89.2774 83.4633 89.4635 83.5371 89.5885C83.611 89.7107 83.7062 89.7945 83.8227 89.8399C83.942 89.8825 84.0712 89.9039 84.2104 89.9039C84.3127 89.9039 84.4022 89.8968 84.4789 89.8825C84.5556 89.8683 84.6153 89.857 84.6579 89.8485L84.888 90.901C84.8141 90.9294 84.709 90.9578 84.5727 90.9862C84.4363 91.0175 84.2658 91.0345 84.0613 91.0374C83.7261 91.0431 83.4136 90.9834 83.1238 90.8584C82.834 90.7334 82.5996 90.5402 82.4207 90.2789C82.2417 90.0175 82.1522 89.6894 82.1522 89.2945V82.8385Z" fill="#808191"/>
    <path d="M547.912 24.7261V17.4533H550.639C551.198 17.4533 551.667 17.5504 552.046 17.7445C552.427 17.9387 552.714 18.2109 552.909 18.5613C553.105 18.9093 553.203 19.3153 553.203 19.7793C553.203 20.2457 553.104 20.6506 552.905 20.9938C552.709 21.3347 552.419 21.5987 552.035 21.7857C551.652 21.9704 551.18 22.0627 550.622 22.0627H548.679V20.969H550.444C550.771 20.969 551.038 20.924 551.247 20.834C551.455 20.7417 551.609 20.6079 551.708 20.4328C551.81 20.2552 551.861 20.0374 551.861 19.7793C551.861 19.5213 551.81 19.3011 551.708 19.1188C551.607 18.9342 551.451 18.7945 551.243 18.6998C551.035 18.6027 550.766 18.5542 550.437 18.5542H549.23V24.7261H547.912ZM551.669 21.4306L553.47 24.7261H552L550.231 21.4306H551.669ZM555.416 24.7261V17.4533H560.146V18.5578H556.734V20.5322H559.901V21.6366H556.734V23.6217H560.175V24.7261H555.416ZM562.49 24.7261V17.4533H567.149V18.5578H563.808V20.5322H566.83V21.6366H563.808V24.7261H562.49ZM569.35 24.7261V17.4533H574.08V18.5578H570.667V20.5322H573.835V21.6366H570.667V23.6217H574.108V24.7261H569.35ZM576.424 24.7261V17.4533H579.151C579.71 17.4533 580.179 17.5504 580.557 17.7445C580.939 17.9387 581.226 18.2109 581.42 18.5613C581.617 18.9093 581.715 19.3153 581.715 19.7793C581.715 20.2457 581.616 20.6506 581.417 20.9938C581.22 21.3347 580.93 21.5987 580.547 21.7857C580.163 21.9704 579.692 22.0627 579.133 22.0627H577.191V20.969H578.956C579.283 20.969 579.55 20.924 579.758 20.834C579.967 20.7417 580.121 20.6079 580.22 20.4328C580.322 20.2552 580.373 20.0374 580.373 19.7793C580.373 19.5213 580.322 19.3011 580.22 19.1188C580.118 18.9342 579.963 18.7945 579.755 18.6998C579.547 18.6027 579.278 18.5542 578.949 18.5542H577.741V24.7261H576.424ZM580.181 21.4306L581.981 24.7261H580.511L578.743 21.4306H580.181ZM583.928 24.7261V17.4533H586.655C587.214 17.4533 587.683 17.5504 588.061 17.7445C588.442 17.9387 588.73 18.2109 588.924 18.5613C589.121 18.9093 589.219 19.3153 589.219 19.7793C589.219 20.2457 589.12 20.6506 588.921 20.9938C588.724 21.3347 588.434 21.5987 588.051 21.7857C587.667 21.9704 587.196 22.0627 586.637 22.0627H584.695V20.969H586.46C586.786 20.969 587.054 20.924 587.262 20.834C587.471 20.7417 587.625 20.6079 587.724 20.4328C587.826 20.2552 587.877 20.0374 587.877 19.7793C587.877 19.5213 587.826 19.3011 587.724 19.1188C587.622 18.9342 587.467 18.7945 587.259 18.6998C587.05 18.6027 586.782 18.5542 586.453 18.5542H585.245V24.7261H583.928ZM587.685 21.4306L589.485 24.7261H588.015L586.247 21.4306H587.685ZM592.366 24.7261H590.959L593.52 17.4533H595.146L597.71 24.7261H596.304L594.361 18.9448H594.305L592.366 24.7261ZM592.412 21.8745H596.247V22.9328H592.412V21.8745ZM599.668 24.7261V17.4533H600.985V23.6217H604.189V24.7261H599.668ZM609.813 24.7261V17.4533H614.543V18.5578H611.13V20.5322H614.298V21.6366H611.13V23.6217H614.571V24.7261H609.813ZM617.821 24.7261H616.414L618.975 17.4533H620.601L623.165 24.7261H621.759L619.816 18.9448H619.76L617.821 24.7261ZM617.867 21.8745H621.702V22.9328H617.867V21.8745ZM625.123 24.7261V17.4533H627.85C628.409 17.4533 628.878 17.5504 629.257 17.7445C629.638 17.9387 629.925 18.2109 630.12 18.5613C630.316 18.9093 630.414 19.3153 630.414 19.7793C630.414 20.2457 630.315 20.6506 630.116 20.9938C629.919 21.3347 629.629 21.5987 629.246 21.7857C628.862 21.9704 628.391 22.0627 627.833 22.0627H625.89V20.969H627.655C627.982 20.969 628.249 20.924 628.458 20.834C628.666 20.7417 628.82 20.6079 628.919 20.4328C629.021 20.2552 629.072 20.0374 629.072 19.7793C629.072 19.5213 629.021 19.3011 628.919 19.1188C628.817 18.9342 628.662 18.7945 628.454 18.6998C628.246 18.6027 627.977 18.5542 627.648 18.5542H626.441V24.7261H625.123ZM628.88 21.4306L630.681 24.7261H629.21L627.442 21.4306H628.88ZM638.604 17.4533V24.7261H637.432L634.005 19.7722H633.944V24.7261H632.627V17.4533H633.806L637.229 22.4107H637.293V17.4533H638.604ZM642.357 17.4533V24.7261H641.039V17.4533H642.357ZM650.76 17.4533V24.7261H649.588L646.161 19.7722H646.101V24.7261H644.783V17.4533H645.962L649.386 22.4107H649.449V17.4533H650.76ZM658.068 19.7758C658.008 19.584 657.927 19.4124 657.822 19.2609C657.721 19.107 657.598 18.9756 657.453 18.8667C657.311 18.7578 657.148 18.6761 656.963 18.6217C656.778 18.5649 656.577 18.5364 656.359 18.5364C655.969 18.5364 655.621 18.6347 655.315 18.8312C655.01 19.0277 654.77 19.3165 654.595 19.6977C654.422 20.0765 654.335 20.5381 654.335 21.0826C654.335 21.6319 654.422 22.097 654.595 22.4782C654.767 22.8594 655.008 23.1494 655.315 23.3482C655.623 23.5447 655.981 23.643 656.388 23.643C656.757 23.643 657.077 23.572 657.347 23.4299C657.619 23.2879 657.828 23.0866 657.975 22.8262C658.122 22.5634 658.195 22.2557 658.195 21.9029L658.494 21.9491H656.519V20.9193H659.47V21.7928C659.47 22.4155 659.338 22.9541 659.072 23.4086C658.807 23.8631 658.443 24.2135 657.979 24.4597C657.515 24.7036 656.982 24.8255 656.381 24.8255C655.711 24.8255 655.122 24.6752 654.616 24.3745C654.112 24.0715 653.717 23.6418 653.433 23.0854C653.152 22.5267 653.011 21.8639 653.011 21.0968C653.011 20.5097 653.094 19.9853 653.259 19.5237C653.427 19.062 653.662 18.6702 653.962 18.3482C654.263 18.0239 654.616 17.7777 655.021 17.6096C655.425 17.4391 655.866 17.3539 656.342 17.3539C656.744 17.3539 657.119 17.4131 657.467 17.5315C657.815 17.6475 658.124 17.8132 658.394 18.0286C658.666 18.2441 658.89 18.4997 659.065 18.7957C659.241 19.0916 659.355 19.4183 659.41 19.7758H658.068Z" fill="#808191"/>
    <path d="M545.352 87.4749L547.781 94.5828H547.879L550.308 87.4749H551.731L548.591 96.2021H547.069L543.929 87.4749H545.352ZM552.889 96.2021V89.6567H554.163V96.2021H552.889ZM553.533 88.6468C553.311 88.6468 553.121 88.5729 552.962 88.4252C552.805 88.2746 552.727 88.0956 552.727 87.8882C552.727 87.678 552.805 87.499 552.962 87.3513C553.121 87.2007 553.311 87.1254 553.533 87.1254C553.754 87.1254 553.943 87.2007 554.099 87.3513C554.259 87.499 554.338 87.678 554.338 87.8882C554.338 88.0956 554.259 88.2746 554.099 88.4252C553.943 88.5729 553.754 88.6468 553.533 88.6468ZM558.699 96.3343C558.054 96.3343 557.498 96.1965 557.032 95.9209C556.569 95.6425 556.211 95.2519 555.958 94.749C555.708 94.2433 555.583 93.651 555.583 92.972C555.583 92.3016 555.708 91.7107 555.958 91.1993C556.211 90.6879 556.564 90.2888 557.015 90.0019C557.47 89.7149 558.001 89.5715 558.609 89.5715C558.978 89.5715 559.336 89.6325 559.683 89.7547C560.03 89.8769 560.341 90.0686 560.616 90.33C560.892 90.5914 561.109 90.9308 561.268 91.3485C561.427 91.7632 561.507 92.2675 561.507 92.8612V93.3129H556.304V92.3584H560.258C560.258 92.0232 560.19 91.7263 560.054 91.4678C559.917 91.2064 559.726 91.0004 559.478 90.8499C559.234 90.6993 558.947 90.624 558.618 90.624C558.26 90.624 557.947 90.7121 557.68 90.8882C557.416 91.0615 557.211 91.2888 557.066 91.57C556.924 91.8485 556.853 92.151 556.853 92.4777V93.2235C556.853 93.661 556.93 94.0331 557.083 94.3399C557.24 94.6468 557.457 94.8811 557.735 95.0431C558.014 95.2021 558.339 95.2817 558.711 95.2817C558.953 95.2817 559.173 95.2476 559.372 95.1794C559.571 95.1084 559.743 95.0033 559.887 94.8641C560.032 94.7249 560.143 94.553 560.22 94.3485L561.426 94.5658C561.329 94.9209 561.156 95.232 560.906 95.499C560.659 95.7632 560.348 95.9692 559.973 96.1169C559.601 96.2618 559.176 96.3343 558.699 96.3343ZM564.328 96.2021L562.402 89.6567H563.718L565.001 94.4635H565.065L566.352 89.6567H567.669L568.947 94.4422H569.011L570.285 89.6567H571.602L569.68 96.2021H568.38L567.051 91.4763H566.953L565.623 96.2021H564.328ZM578.744 96.3343C578.13 96.3343 577.595 96.1936 577.137 95.9124C576.68 95.6311 576.325 95.2377 576.072 94.732C575.819 94.2263 575.693 93.6354 575.693 92.9593C575.693 92.2803 575.819 91.6865 576.072 91.178C576.325 90.6695 576.68 90.2746 577.137 89.9933C577.595 89.7121 578.13 89.5715 578.744 89.5715C579.358 89.5715 579.893 89.7121 580.351 89.9933C580.808 90.2746 581.163 90.6695 581.416 91.178C581.669 91.6865 581.795 92.2803 581.795 92.9593C581.795 93.6354 581.669 94.2263 581.416 94.732C581.163 95.2377 580.808 95.6311 580.351 95.9124C579.893 96.1936 579.358 96.3343 578.744 96.3343ZM578.748 95.2646C579.146 95.2646 579.476 95.1595 579.737 94.9493C579.998 94.7391 580.191 94.4593 580.316 94.1098C580.444 93.7604 580.508 93.3754 580.508 92.955C580.508 92.5374 580.444 92.1539 580.316 91.8044C580.191 91.4521 579.998 91.1695 579.737 90.9564C579.476 90.7433 579.146 90.6368 578.748 90.6368C578.348 90.6368 578.015 90.7433 577.751 90.9564C577.49 91.1695 577.295 91.4521 577.167 91.8044C577.042 92.1539 576.98 92.5374 576.98 92.955C576.98 93.3754 577.042 93.7604 577.167 94.1098C577.295 94.4593 577.49 94.7391 577.751 94.9493C578.015 95.1595 578.348 95.2646 578.748 95.2646ZM584.492 92.3158V96.2021H583.217V89.6567H584.44V90.722H584.521C584.672 90.3754 584.908 90.097 585.229 89.8868C585.553 89.6766 585.96 89.5715 586.452 89.5715C586.898 89.5715 587.288 89.6652 587.624 89.8527C587.959 90.0374 588.219 90.3129 588.403 90.6794C588.588 91.0459 588.68 91.499 588.68 92.0388V96.2021H587.406V92.1922C587.406 91.7178 587.283 91.347 587.036 91.08C586.788 90.8101 586.449 90.6752 586.017 90.6752C585.722 90.6752 585.459 90.7391 585.229 90.8669C585.001 90.9948 584.821 91.1823 584.688 91.4294C584.557 91.6737 584.492 91.9692 584.492 92.3158ZM593.667 96.2021V87.4749H596.863C597.483 87.4749 597.995 87.5771 598.402 87.7817C598.808 87.9834 599.112 88.2575 599.314 88.6041C599.515 88.9479 599.616 89.3357 599.616 89.7675C599.616 90.1311 599.549 90.4379 599.416 90.6879C599.282 90.9351 599.103 91.134 598.879 91.2845C598.657 91.4323 598.413 91.5402 598.146 91.6084V91.6936C598.436 91.7078 598.718 91.8016 598.994 91.9749C599.272 92.1453 599.503 92.3882 599.684 92.7036C599.866 93.0189 599.957 93.4024 599.957 93.8541C599.957 94.3002 599.852 94.7007 599.642 95.0558C599.434 95.4081 599.113 95.6879 598.679 95.8953C598.244 96.0999 597.689 96.2021 597.012 96.2021H593.667ZM594.984 95.0729H596.885C597.515 95.0729 597.967 94.9507 598.24 94.7064C598.512 94.4621 598.649 94.1567 598.649 93.7902C598.649 93.5146 598.579 93.2618 598.44 93.0317C598.301 92.8016 598.102 92.6183 597.843 92.482C597.588 92.3456 597.284 92.2774 596.932 92.2774H594.984V95.0729ZM594.984 91.2504H596.748C597.044 91.2504 597.309 91.1936 597.545 91.08C597.784 90.9664 597.973 90.8073 598.112 90.6027C598.254 90.3953 598.325 90.151 598.325 89.8698C598.325 89.509 598.199 89.2064 597.946 88.9621C597.693 88.7178 597.305 88.5956 596.782 88.5956H594.984V91.2504ZM606.279 89.7675C606.233 89.3641 606.046 89.0516 605.716 88.83C605.387 88.6056 604.972 88.4933 604.472 88.4933C604.114 88.4933 603.804 88.5502 603.543 88.6638C603.282 88.7746 603.079 88.928 602.934 89.124C602.792 89.3172 602.721 89.5374 602.721 89.7845C602.721 89.9919 602.769 90.1709 602.865 90.3215C602.965 90.472 603.094 90.5985 603.253 90.7007C603.415 90.8002 603.588 90.884 603.773 90.9521C603.958 91.0175 604.135 91.0715 604.306 91.1141L605.158 91.3357C605.436 91.4039 605.722 91.4962 606.015 91.6127C606.307 91.7291 606.579 91.8825 606.829 92.0729C607.079 92.2632 607.28 92.499 607.434 92.7803C607.59 93.0615 607.668 93.3982 607.668 93.7902C607.668 94.2845 607.54 94.7235 607.284 95.107C607.032 95.4905 606.664 95.7931 606.181 96.0146C605.701 96.2362 605.12 96.347 604.438 96.347C603.784 96.347 603.219 96.2433 602.742 96.036C602.265 95.8286 601.891 95.5345 601.621 95.1539C601.351 94.7703 601.202 94.3158 601.174 93.7902H602.495C602.52 94.1056 602.623 94.3683 602.802 94.5786C602.983 94.786 603.215 94.9408 603.496 95.0431C603.78 95.1425 604.091 95.1922 604.429 95.1922C604.802 95.1922 605.133 95.134 605.422 95.0175C605.715 94.8982 605.945 94.7334 606.113 94.5232C606.28 94.3101 606.364 94.0615 606.364 93.7774C606.364 93.5189 606.29 93.3073 606.142 93.1425C605.998 92.9777 605.8 92.8414 605.55 92.7334C605.303 92.6254 605.023 92.5303 604.711 92.4479L603.679 92.1666C602.981 91.9763 602.427 91.6965 602.017 91.3271C601.611 90.9578 601.408 90.4692 601.408 89.8612C601.408 89.3584 601.544 88.9195 601.817 88.5445C602.09 88.1695 602.459 87.8783 602.925 87.6709C603.391 87.4607 603.917 87.3556 604.502 87.3556C605.093 87.3556 605.614 87.4593 606.066 87.6666C606.52 87.874 606.878 88.1595 607.14 88.5232C607.401 88.884 607.537 89.2987 607.549 89.7675H606.279ZM616.49 90.3129H615.161C615.109 90.0289 615.014 89.7789 614.875 89.5629C614.736 89.347 614.565 89.1638 614.364 89.0132C614.162 88.8627 613.936 88.749 613.686 88.6723C613.439 88.5956 613.176 88.5573 612.898 88.5573C612.395 88.5573 611.945 88.6837 611.547 88.9365C611.152 89.1894 610.84 89.5601 610.609 90.0487C610.382 90.5374 610.269 91.134 610.269 91.8385C610.269 92.5487 610.382 93.1482 610.609 93.6368C610.84 94.1254 611.153 94.4948 611.551 94.7448C611.949 94.9948 612.396 95.1198 612.894 95.1198C613.169 95.1198 613.43 95.0828 613.678 95.009C613.928 94.9323 614.153 94.82 614.355 94.6723C614.557 94.5246 614.727 94.3442 614.867 94.1311C615.009 93.9152 615.107 93.6681 615.161 93.3896L616.49 93.3939C616.419 93.8229 616.281 94.2178 616.077 94.5786C615.875 94.9365 615.615 95.2462 615.297 95.5075C614.982 95.7661 614.621 95.9664 614.215 96.1084C613.808 96.2504 613.365 96.3215 612.885 96.3215C612.129 96.3215 611.456 96.1425 610.865 95.7845C610.274 95.4237 609.808 94.9081 609.467 94.2377C609.129 93.5672 608.96 92.7675 608.96 91.8385C608.96 90.9067 609.131 90.107 609.472 89.4394C609.813 88.7689 610.278 88.2547 610.869 87.8968C611.46 87.536 612.132 87.3556 612.885 87.3556C613.348 87.3556 613.78 87.4223 614.18 87.5558C614.584 87.6865 614.946 87.8797 615.267 88.1354C615.588 88.3882 615.854 88.6979 616.064 89.0644C616.274 89.428 616.416 89.8442 616.49 90.3129ZM626.001 89.7675C625.956 89.3641 625.769 89.0516 625.439 88.83C625.109 88.6056 624.695 88.4933 624.195 88.4933C623.837 88.4933 623.527 88.5502 623.266 88.6638C623.004 88.7746 622.801 88.928 622.656 89.124C622.514 89.3172 622.443 89.5374 622.443 89.7845C622.443 89.9919 622.492 90.1709 622.588 90.3215C622.688 90.472 622.817 90.5985 622.976 90.7007C623.138 90.8002 623.311 90.884 623.496 90.9521C623.68 91.0175 623.858 91.0715 624.028 91.1141L624.881 91.3357C625.159 91.4039 625.445 91.4962 625.737 91.6127C626.03 91.7291 626.301 91.8825 626.551 92.0729C626.801 92.2632 627.003 92.499 627.156 92.7803C627.313 93.0615 627.391 93.3982 627.391 93.7902C627.391 94.2845 627.263 94.7235 627.007 95.107C626.754 95.4905 626.386 95.7931 625.903 96.0146C625.423 96.2362 624.842 96.347 624.161 96.347C623.507 96.347 622.942 96.2433 622.465 96.036C621.987 95.8286 621.614 95.5345 621.344 95.1539C621.074 94.7703 620.925 94.3158 620.896 93.7902H622.217C622.243 94.1056 622.345 94.3683 622.524 94.5786C622.706 94.786 622.938 94.9408 623.219 95.0431C623.503 95.1425 623.814 95.1922 624.152 95.1922C624.524 95.1922 624.855 95.134 625.145 95.0175C625.438 94.8982 625.668 94.7334 625.835 94.5232C626.003 94.3101 626.087 94.0615 626.087 93.7774C626.087 93.5189 626.013 93.3073 625.865 93.1425C625.72 92.9777 625.523 92.8414 625.273 92.7334C625.026 92.6254 624.746 92.5303 624.433 92.4479L623.402 92.1666C622.703 91.9763 622.149 91.6965 621.74 91.3271C621.334 90.9578 621.131 90.4692 621.131 89.8612C621.131 89.3584 621.267 88.9195 621.54 88.5445C621.813 88.1695 622.182 87.8783 622.648 87.6709C623.114 87.4607 623.639 87.3556 624.224 87.3556C624.815 87.3556 625.337 87.4593 625.788 87.6666C626.243 87.874 626.601 88.1595 626.862 88.5232C627.124 88.884 627.26 89.2987 627.271 89.7675H626.001ZM631.619 96.3343C630.985 96.3343 630.44 96.1908 629.983 95.9039C629.528 95.6141 629.179 95.2149 628.934 94.7064C628.69 94.1979 628.568 93.6155 628.568 92.9593C628.568 92.2945 628.693 91.7078 628.943 91.1993C629.193 90.6879 629.545 90.2888 630 90.0019C630.454 89.7149 630.99 89.5715 631.606 89.5715C632.103 89.5715 632.547 89.6638 632.936 89.8485C633.325 90.0303 633.639 90.286 633.878 90.6155C634.119 90.945 634.262 91.33 634.308 91.7703H633.068C633 91.4635 632.843 91.1993 632.599 90.9777C632.358 90.7561 632.034 90.6453 631.628 90.6453C631.272 90.6453 630.961 90.7391 630.694 90.9266C630.43 91.1112 630.224 91.3754 630.076 91.7192C629.929 92.0601 629.855 92.4635 629.855 92.9294C629.855 93.4067 629.927 93.8186 630.072 94.1652C630.217 94.5118 630.422 94.7803 630.686 94.9706C630.953 95.161 631.267 95.2561 631.628 95.2561C631.869 95.2561 632.088 95.2121 632.284 95.124C632.483 95.0331 632.649 94.9039 632.782 94.7362C632.919 94.5686 633.014 94.3669 633.068 94.1311H634.308C634.262 94.5544 634.125 94.9323 633.895 95.2646C633.664 95.597 633.356 95.8584 632.97 96.0487C632.586 96.2391 632.136 96.3343 631.619 96.3343ZM637.575 96.347C637.161 96.347 636.786 96.2703 636.45 96.1169C636.115 95.9607 635.849 95.7348 635.653 95.4394C635.46 95.1439 635.364 94.7817 635.364 94.3527C635.364 93.9834 635.435 93.6794 635.577 93.4408C635.719 93.2021 635.911 93.0132 636.152 92.874C636.394 92.7348 636.663 92.6297 636.962 92.5587C637.26 92.4877 637.564 92.4337 637.874 92.3968C638.266 92.3513 638.584 92.3144 638.828 92.286C639.072 92.2547 639.25 92.205 639.361 92.1368C639.472 92.0686 639.527 91.9578 639.527 91.8044V91.7746C639.527 91.4024 639.422 91.1141 639.212 90.9095C639.004 90.705 638.695 90.6027 638.283 90.6027C637.854 90.6027 637.516 90.6979 637.269 90.8882C637.024 91.0757 636.855 91.2845 636.761 91.5146L635.564 91.2419C635.706 90.8442 635.913 90.5232 636.186 90.2789C636.462 90.0317 636.778 89.8527 637.136 89.7419C637.494 89.6283 637.871 89.5715 638.266 89.5715C638.527 89.5715 638.804 89.6027 639.097 89.6652C639.392 89.7249 639.668 89.8357 639.923 89.9976C640.182 90.1595 640.394 90.3911 640.558 90.6922C640.723 90.9905 640.805 91.3783 640.805 91.8556V96.2021H639.561V95.3073H639.51C639.428 95.472 639.304 95.634 639.139 95.7931C638.974 95.9521 638.763 96.0843 638.504 96.1894C638.246 96.2945 637.936 96.347 637.575 96.347ZM637.852 95.3243C638.205 95.3243 638.506 95.2547 638.756 95.1155C639.009 94.9763 639.2 94.7945 639.331 94.57C639.465 94.3428 639.531 94.0999 639.531 93.8414V92.9976C639.486 93.0431 639.398 93.0857 639.267 93.1254C639.139 93.1624 638.993 93.195 638.828 93.2235C638.663 93.249 638.503 93.2732 638.347 93.2959C638.19 93.3158 638.06 93.3328 637.955 93.347C637.707 93.3783 637.482 93.4308 637.277 93.5047C637.075 93.5786 636.913 93.6851 636.791 93.8243C636.672 93.9607 636.612 94.1425 636.612 94.3698C636.612 94.6851 636.729 94.9237 636.962 95.0857C637.195 95.2448 637.492 95.3243 637.852 95.3243ZM643.777 92.3158V96.2021H642.503V89.6567H643.726V90.722H643.807C643.957 90.3754 644.193 90.097 644.514 89.8868C644.838 89.6766 645.245 89.5715 645.737 89.5715C646.183 89.5715 646.574 89.6652 646.909 89.8527C647.244 90.0374 647.504 90.3129 647.689 90.6794C647.873 91.0459 647.966 91.499 647.966 92.0388V96.2021H646.691V92.1922C646.691 91.7178 646.568 91.347 646.321 91.08C646.074 90.8101 645.734 90.6752 645.302 90.6752C645.007 90.6752 644.744 90.7391 644.514 90.8669C644.287 90.9948 644.106 91.1823 643.973 91.4294C643.842 91.6737 643.777 91.9692 643.777 92.3158Z" fill="#808191"/>
    <path fill-rule="evenodd" clip-rule="evenodd" d="M656.985 96.1854C656.985 96.4658 657.1 96.7348 657.305 96.9331C657.511 97.1314 657.789 97.2428 658.079 97.2428H663.912C664.202 97.2428 664.48 97.1314 664.686 96.9331C664.891 96.7348 665.006 96.4658 665.006 96.1854V93.3655C665.006 93.272 664.967 93.1823 664.899 93.1162C664.831 93.0501 664.738 93.013 664.641 93.013C664.545 93.013 664.452 93.0501 664.384 93.1162C664.315 93.1823 664.277 93.272 664.277 93.3655V96.1854C664.277 96.2788 664.238 96.3685 664.17 96.4346C664.102 96.5007 664.009 96.5378 663.912 96.5378H658.079C657.982 96.5378 657.889 96.5007 657.821 96.4346C657.753 96.3685 657.714 96.2788 657.714 96.1854V90.5455C657.714 90.4521 657.753 90.3624 657.821 90.2963C657.889 90.2302 657.982 90.1931 658.079 90.1931H660.996C661.092 90.1931 661.185 90.1559 661.253 90.0898C661.322 90.0237 661.36 89.9341 661.36 89.8406C661.36 89.7471 661.322 89.6574 661.253 89.5913C661.185 89.5252 661.092 89.4881 660.996 89.4881H658.079C657.789 89.4881 657.511 89.5995 657.305 89.7978C657.1 89.9961 656.985 90.2651 656.985 90.5455V96.1854ZM662.089 88.4306C662.089 88.3371 662.128 88.2475 662.196 88.1814C662.264 88.1153 662.357 88.0781 662.454 88.0781H666.1C666.196 88.0781 666.289 88.1153 666.357 88.1814C666.426 88.2475 666.464 88.3371 666.464 88.4306V91.9555C666.464 92.049 666.426 92.1386 666.357 92.2047C666.289 92.2708 666.196 92.308 666.1 92.308C666.003 92.308 665.91 92.2708 665.842 92.2047C665.773 92.1386 665.735 92.049 665.735 91.9555V88.7831H662.454C662.357 88.7831 662.264 88.746 662.196 88.6799C662.128 88.6138 662.089 88.5241 662.089 88.4306Z" fill="#808191"/>
    <path fill-rule="evenodd" clip-rule="evenodd" d="M666.357 88.1807C666.391 88.2134 666.418 88.2523 666.437 88.2952C666.455 88.338 666.465 88.3839 666.465 88.4303C666.465 88.4766 666.455 88.5225 666.437 88.5654C666.418 88.6082 666.391 88.6471 666.357 88.6798L660.524 94.3196C660.49 94.3524 660.45 94.3784 660.406 94.3961C660.361 94.4139 660.314 94.423 660.266 94.423C660.218 94.423 660.171 94.4139 660.126 94.3961C660.082 94.3784 660.042 94.3524 660.008 94.3196C659.974 94.2869 659.947 94.248 659.929 94.2051C659.91 94.1623 659.901 94.1164 659.901 94.0701C659.901 94.0237 659.91 93.9778 659.929 93.935C659.947 93.8922 659.974 93.8533 660.008 93.8205L665.841 88.1807C665.875 88.1479 665.915 88.1218 665.96 88.1041C666.004 88.0863 666.051 88.0771 666.099 88.0771C666.147 88.0771 666.195 88.0863 666.239 88.1041C666.283 88.1218 666.324 88.1479 666.357 88.1807Z" fill="#808191"/>
    <path d="M572.105 79.2159C571.286 79.2159 570.583 79.0087 569.997 78.5944C569.413 78.1768 568.964 77.5752 568.649 76.7897C568.338 76.0009 568.182 75.0513 568.182 73.941C568.185 72.8307 568.343 71.8861 568.654 71.1072C568.969 70.325 569.418 69.7284 570.002 69.3174C570.588 68.9064 571.289 68.7009 572.105 68.7009C572.92 68.7009 573.621 68.9064 574.208 69.3174C574.794 69.7284 575.243 70.325 575.555 71.1072C575.87 71.8894 576.027 72.834 576.027 73.941C576.027 75.0546 575.87 76.0059 575.555 76.7947C575.243 77.5802 574.794 78.1801 574.208 78.5944C573.624 79.0087 572.923 79.2159 572.105 79.2159ZM572.105 77.6598C572.741 77.6598 573.243 77.3465 573.611 76.7201C573.982 76.0904 574.168 75.164 574.168 73.941C574.168 73.1323 574.083 72.4528 573.914 71.9027C573.745 71.3525 573.507 70.9382 573.198 70.6598C572.89 70.378 572.526 70.2372 572.105 70.2372C571.472 70.2372 570.971 70.552 570.603 71.1818C570.235 71.8082 570.05 72.7279 570.046 73.941C570.043 74.753 570.124 75.4358 570.29 75.9893C570.459 76.5428 570.698 76.9604 571.006 77.2421C571.314 77.5206 571.68 77.6598 572.105 77.6598ZM578.411 79.1313C578.109 79.1313 577.851 79.0253 577.635 78.8132C577.42 78.601 577.314 78.3425 577.317 78.0376C577.314 77.7393 577.42 77.4841 577.635 77.272C577.851 77.0599 578.109 76.9538 578.411 76.9538C578.703 76.9538 578.956 77.0599 579.172 77.272C579.39 77.4841 579.502 77.7393 579.505 78.0376C579.502 78.2398 579.448 78.4237 579.346 78.5894C579.246 78.7552 579.114 78.8877 578.948 78.9872C578.786 79.0833 578.607 79.1313 578.411 79.1313ZM584.71 79.2159C583.891 79.2159 583.189 79.0087 582.602 78.5944C582.019 78.1768 581.57 77.5752 581.255 76.7897C580.943 76.0009 580.787 75.0513 580.787 73.941C580.791 72.8307 580.948 71.8861 581.26 71.1072C581.575 70.325 582.024 69.7284 582.607 69.3174C583.194 68.9064 583.895 68.7009 584.71 68.7009C585.525 68.7009 586.226 68.9064 586.813 69.3174C587.4 69.7284 587.849 70.325 588.16 71.1072C588.475 71.8894 588.633 72.834 588.633 73.941C588.633 75.0546 588.475 76.0059 588.16 76.7947C587.849 77.5802 587.4 78.1801 586.813 78.5944C586.23 79.0087 585.529 79.2159 584.71 79.2159ZM584.71 77.6598C585.346 77.6598 585.849 77.3465 586.216 76.7201C586.588 76.0904 586.773 75.164 586.773 73.941C586.773 73.1323 586.689 72.4528 586.52 71.9027C586.351 71.3525 586.112 70.9382 585.804 70.6598C585.496 70.378 585.131 70.2372 584.71 70.2372C584.077 70.2372 583.577 70.552 583.209 71.1818C582.841 71.8082 582.655 72.7279 582.652 73.941C582.649 74.753 582.73 75.4358 582.895 75.9893C583.064 76.5428 583.303 76.9604 583.611 77.2421C583.92 77.5206 584.286 77.6598 584.71 77.6598ZM594.048 79.2159C593.229 79.2159 592.527 79.0087 591.94 78.5944C591.357 78.1768 590.908 77.5752 590.593 76.7897C590.281 76.0009 590.125 75.0513 590.125 73.941C590.129 72.8307 590.286 71.8861 590.598 71.1072C590.913 70.325 591.362 69.7284 591.945 69.3174C592.532 68.9064 593.233 68.7009 594.048 68.7009C594.863 68.7009 595.564 68.9064 596.151 69.3174C596.738 69.7284 597.187 70.325 597.498 71.1072C597.813 71.8894 597.971 72.834 597.971 73.941C597.971 75.0546 597.813 76.0059 597.498 76.7947C597.187 77.5802 596.738 78.1801 596.151 78.5944C595.568 79.0087 594.867 79.2159 594.048 79.2159ZM594.048 77.6598C594.684 77.6598 595.186 77.3465 595.554 76.7201C595.926 76.0904 596.111 75.164 596.111 73.941C596.111 73.1323 596.027 72.4528 595.858 71.9027C595.689 71.3525 595.45 70.9382 595.142 70.6598C594.833 70.378 594.469 70.2372 594.048 70.2372C593.415 70.2372 592.914 70.552 592.547 71.1818C592.179 71.8082 591.993 72.7279 591.99 73.941C591.986 74.753 592.068 75.4358 592.233 75.9893C592.402 76.5428 592.641 76.9604 592.949 77.2421C593.257 77.5206 593.624 77.6598 594.048 77.6598ZM603.386 79.2159C602.567 79.2159 601.865 79.0087 601.278 78.5944C600.695 78.1768 600.245 77.5752 599.931 76.7897C599.619 76.0009 599.463 75.0513 599.463 73.941C599.467 72.8307 599.624 71.8861 599.936 71.1072C600.25 70.325 600.7 69.7284 601.283 69.3174C601.87 68.9064 602.571 68.7009 603.386 68.7009C604.201 68.7009 604.902 68.9064 605.489 69.3174C606.075 69.7284 606.525 70.325 606.836 71.1072C607.151 71.8894 607.308 72.834 607.308 73.941C607.308 75.0546 607.151 76.0059 606.836 76.7947C606.525 77.5802 606.075 78.1801 605.489 78.5944C604.906 79.0087 604.205 79.2159 603.386 79.2159ZM603.386 77.6598C604.022 77.6598 604.524 77.3465 604.892 76.7201C605.263 76.0904 605.449 75.164 605.449 73.941C605.449 73.1323 605.365 72.4528 605.196 71.9027C605.026 71.3525 604.788 70.9382 604.48 70.6598C604.171 70.378 603.807 70.2372 603.386 70.2372C602.753 70.2372 602.252 70.552 601.884 71.1818C601.517 71.8082 601.331 72.7279 601.328 73.941C601.324 74.753 601.406 75.4358 601.571 75.9893C601.74 76.5428 601.979 76.9604 602.287 77.2421C602.595 77.5206 602.962 77.6598 603.386 77.6598ZM609.692 79.1313C609.391 79.1313 609.132 79.0253 608.917 78.8132C608.701 78.601 608.595 78.3425 608.599 78.0376C608.595 77.7393 608.701 77.4841 608.917 77.272C609.132 77.0599 609.391 76.9538 609.692 76.9538C609.984 76.9538 610.238 77.0599 610.453 77.272C610.672 77.4841 610.783 77.7393 610.786 78.0376C610.783 78.2398 610.73 78.4237 610.627 78.5894C610.528 78.7552 610.395 78.8877 610.229 78.9872C610.067 79.0833 609.888 79.1313 609.692 79.1313ZM612.724 79.022V68.8402H616.621C617.357 68.8402 617.969 68.9562 618.456 69.1882C618.947 69.4169 619.313 69.7301 619.555 70.1278C619.8 70.5255 619.923 70.9763 619.923 71.4801C619.923 71.8944 619.843 72.249 619.684 72.544C619.525 72.8357 619.311 73.0726 619.043 73.2549C618.774 73.4372 618.474 73.5681 618.143 73.6477V73.7471C618.504 73.767 618.85 73.878 619.182 74.0802C619.517 74.2791 619.79 74.5608 620.002 74.9254C620.214 75.29 620.32 75.7308 620.32 76.2478C620.32 76.7748 620.193 77.2488 619.938 77.6697C619.682 78.0873 619.298 78.4171 618.784 78.659C618.27 78.901 617.624 79.022 616.845 79.022H612.724ZM614.568 77.4808H616.552C617.221 77.4808 617.704 77.3532 617.999 77.098C618.297 76.8394 618.446 76.508 618.446 76.1036C618.446 75.802 618.371 75.5303 618.222 75.2883C618.073 75.043 617.861 74.8508 617.586 74.7116C617.311 74.5691 616.983 74.4978 616.602 74.4978H614.568V77.4808ZM614.568 73.1704H616.393C616.711 73.1704 616.998 73.1124 617.253 72.9964C617.508 72.8771 617.709 72.7097 617.854 72.4943C618.004 72.2755 618.078 72.017 618.078 71.7187C618.078 71.3243 617.939 70.9995 617.661 70.7443C617.385 70.4891 616.976 70.3615 616.433 70.3615H614.568V73.1704ZM630.292 68.8402V79.022H628.651L623.854 72.0866H623.769V79.022H621.925V68.8402H623.575L628.368 75.7805H628.458V68.8402H630.292ZM632.302 79.022V68.8402H636.2C636.935 68.8402 637.547 68.9562 638.034 69.1882C638.525 69.4169 638.891 69.7301 639.133 70.1278C639.378 70.5255 639.501 70.9763 639.501 71.4801C639.501 71.8944 639.421 72.249 639.262 72.544C639.103 72.8357 638.889 73.0726 638.621 73.2549C638.352 73.4372 638.052 73.5681 637.721 73.6477V73.7471C638.082 73.767 638.429 73.878 638.76 74.0802C639.095 74.2791 639.368 74.5608 639.58 74.9254C639.792 75.29 639.898 75.7308 639.898 76.2478C639.898 76.7748 639.771 77.2488 639.516 77.6697C639.26 78.0873 638.876 78.4171 638.362 78.659C637.849 78.901 637.202 79.022 636.423 79.022H632.302ZM634.146 77.4808H636.13C636.8 77.4808 637.282 77.3532 637.577 77.098C637.875 76.8394 638.024 76.508 638.024 76.1036C638.024 75.802 637.95 75.5303 637.8 75.2883C637.651 75.043 637.439 74.8508 637.164 74.7116C636.889 74.5691 636.561 74.4978 636.18 74.4978H634.146V77.4808ZM634.146 73.1704H635.971C636.289 73.1704 636.576 73.1124 636.831 72.9964C637.086 72.8771 637.287 72.7097 637.433 72.4943C637.582 72.2755 637.656 72.017 637.656 71.7187C637.656 71.3243 637.517 70.9995 637.239 70.7443C636.964 70.4891 636.554 70.3615 636.011 70.3615H634.146V73.1704Z" fill="white"/>
    <path d="M203.432 24.7261H202.026L204.586 17.4533H206.213L208.777 24.7261H207.37L205.428 18.9448H205.371L203.432 24.7261ZM203.478 21.8745H207.314V22.9328H203.478V21.8745ZM210.735 17.4533H212.347L214.506 22.7232H214.591L216.75 17.4533H218.362V24.7261H217.098V19.7296H217.031L215.021 24.7048H214.076L212.066 19.719H211.999V24.7261H210.735V17.4533ZM227.296 21.0897C227.296 21.8733 227.149 22.5445 226.855 23.1032C226.564 23.6595 226.166 24.0857 225.662 24.3816C225.16 24.6775 224.591 24.8255 223.954 24.8255C223.317 24.8255 222.747 24.6775 222.242 24.3816C221.741 24.0833 221.343 23.656 221.049 23.0997C220.758 22.5409 220.612 21.871 220.612 21.0897C220.612 20.3061 220.758 19.6361 221.049 19.0798C221.343 18.5211 221.741 18.0937 222.242 17.7978C222.747 17.5019 223.317 17.3539 223.954 17.3539C224.591 17.3539 225.16 17.5019 225.662 17.7978C226.166 18.0937 226.564 18.5211 226.855 19.0798C227.149 19.6361 227.296 20.3061 227.296 21.0897ZM225.971 21.0897C225.971 20.5381 225.885 20.0729 225.712 19.6941C225.541 19.313 225.305 19.0253 225.002 18.8312C224.699 18.6347 224.349 18.5364 223.954 18.5364C223.559 18.5364 223.21 18.6347 222.907 18.8312C222.604 19.0253 222.366 19.313 222.193 19.6941C222.022 20.0729 221.937 20.5381 221.937 21.0897C221.937 21.6413 222.022 22.1077 222.193 22.4889C222.366 22.8676 222.604 23.1553 222.907 23.3518C223.21 23.5459 223.559 23.643 223.954 23.643C224.349 23.643 224.699 23.5459 225.002 23.3518C225.305 23.1553 225.541 22.8676 225.712 22.4889C225.885 22.1077 225.971 21.6413 225.971 21.0897ZM234.126 17.4533H235.443V22.2048C235.443 22.7256 235.32 23.1837 235.074 23.5791C234.83 23.9744 234.487 24.2834 234.044 24.5059C233.601 24.7261 233.084 24.8362 232.492 24.8362C231.898 24.8362 231.38 24.7261 230.937 24.5059C230.494 24.2834 230.151 23.9744 229.907 23.5791C229.663 23.1837 229.541 22.7256 229.541 22.2048V17.4533H230.859V22.0947C230.859 22.3977 230.925 22.6676 231.058 22.9043C231.193 23.1411 231.382 23.3269 231.626 23.4619C231.87 23.5944 232.158 23.6607 232.492 23.6607C232.826 23.6607 233.115 23.5944 233.359 23.4619C233.605 23.3269 233.794 23.1411 233.927 22.9043C234.06 22.6676 234.126 22.3977 234.126 22.0947V17.4533ZM243.852 17.4533V24.7261H242.68L239.253 19.7722H239.193V24.7261H237.875V17.4533H239.054L242.478 22.4107H242.541V17.4533H243.852ZM245.968 18.5578V17.4533H251.77V18.5578H249.522V24.7261H248.216V18.5578H245.968Z" fill="#808191"/>
    <path d="M187.719 73.396C186.9 73.396 186.197 73.1889 185.611 72.7746C185.027 72.357 184.578 71.7554 184.263 70.9699C183.952 70.1811 183.796 69.2315 183.796 68.1212C183.799 67.0109 183.957 66.0663 184.268 65.2874C184.583 64.5052 185.032 63.9086 185.616 63.4976C186.202 63.0866 186.903 62.8811 187.719 62.8811C188.534 62.8811 189.235 63.0866 189.822 63.4976C190.408 63.9086 190.857 64.5052 191.169 65.2874C191.484 66.0696 191.641 67.0142 191.641 68.1212C191.641 69.2348 191.484 70.186 191.169 70.9749C190.857 71.7604 190.408 72.3603 189.822 72.7746C189.238 73.1889 188.537 73.396 187.719 73.396ZM187.719 71.8399C188.355 71.8399 188.857 71.5267 189.225 70.9003C189.596 70.2706 189.782 69.3442 189.782 68.1212C189.782 67.3125 189.697 66.633 189.528 66.0828C189.359 65.5326 189.121 65.1183 188.812 64.8399C188.504 64.5582 188.14 64.4173 187.719 64.4173C187.086 64.4173 186.585 64.7322 186.217 65.3619C185.849 65.9884 185.664 66.9081 185.66 68.1212C185.657 68.9332 185.738 69.616 185.904 70.1695C186.073 70.723 186.312 71.1406 186.62 71.4223C186.928 71.7007 187.294 71.8399 187.719 71.8399ZM194.025 73.3115C193.723 73.3115 193.465 73.2055 193.25 72.9933C193.034 72.7812 192.928 72.5227 192.931 72.2178C192.928 71.9195 193.034 71.6643 193.25 71.4521C193.465 71.24 193.723 71.134 194.025 71.134C194.317 71.134 194.57 71.24 194.786 71.4521C195.004 71.6643 195.116 71.9195 195.119 72.2178C195.116 72.42 195.062 72.6039 194.96 72.7696C194.86 72.9353 194.728 73.0679 194.562 73.1673C194.4 73.2635 194.221 73.3115 194.025 73.3115ZM200.324 73.396C199.505 73.396 198.803 73.1889 198.216 72.7746C197.633 72.357 197.184 71.7554 196.869 70.9699C196.557 70.1811 196.402 69.2315 196.402 68.1212C196.405 67.0109 196.562 66.0663 196.874 65.2874C197.189 64.5052 197.638 63.9086 198.221 63.4976C198.808 63.0866 199.509 62.8811 200.324 62.8811C201.139 62.8811 201.84 63.0866 202.427 63.4976C203.014 63.9086 203.463 64.5052 203.774 65.2874C204.089 66.0696 204.247 67.0142 204.247 68.1212C204.247 69.2348 204.089 70.186 203.774 70.9749C203.463 71.7604 203.014 72.3603 202.427 72.7746C201.844 73.1889 201.143 73.396 200.324 73.396ZM200.324 71.8399C200.96 71.8399 201.463 71.5267 201.83 70.9003C202.202 70.2706 202.387 69.3442 202.387 68.1212C202.387 67.3125 202.303 66.633 202.134 66.0828C201.965 65.5326 201.726 65.1183 201.418 64.8399C201.11 64.5582 200.745 64.4173 200.324 64.4173C199.691 64.4173 199.191 64.7322 198.823 65.3619C198.455 65.9884 198.269 66.9081 198.266 68.1212C198.263 68.9332 198.344 69.616 198.509 70.1695C198.678 70.723 198.917 71.1406 199.225 71.4223C199.534 71.7007 199.9 71.8399 200.324 71.8399ZM209.662 73.396C208.843 73.396 208.141 73.1889 207.554 72.7746C206.971 72.357 206.522 71.7554 206.207 70.9699C205.895 70.1811 205.739 69.2315 205.739 68.1212C205.743 67.0109 205.9 66.0663 206.212 65.2874C206.527 64.5052 206.976 63.9086 207.559 63.4976C208.146 63.0866 208.847 62.8811 209.662 62.8811C210.477 62.8811 211.178 63.0866 211.765 63.4976C212.352 63.9086 212.801 64.5052 213.112 65.2874C213.427 66.0696 213.585 67.0142 213.585 68.1212C213.585 69.2348 213.427 70.186 213.112 70.9749C212.801 71.7604 212.352 72.3603 211.765 72.7746C211.182 73.1889 210.481 73.396 209.662 73.396ZM209.662 71.8399C210.298 71.8399 210.8 71.5267 211.168 70.9003C211.54 70.2706 211.725 69.3442 211.725 68.1212C211.725 67.3125 211.641 66.633 211.472 66.0828C211.303 65.5326 211.064 65.1183 210.756 64.8399C210.447 64.5582 210.083 64.4173 209.662 64.4173C209.029 64.4173 208.528 64.7322 208.161 65.3619C207.793 65.9884 207.607 66.9081 207.604 68.1212C207.6 68.9332 207.682 69.616 207.847 70.1695C208.016 70.723 208.255 71.1406 208.563 71.4223C208.871 71.7007 209.238 71.8399 209.662 71.8399ZM219 73.396C218.181 73.396 217.479 73.1889 216.892 72.7746C216.309 72.357 215.859 71.7554 215.545 70.9699C215.233 70.1811 215.077 69.2315 215.077 68.1212C215.081 67.0109 215.238 66.0663 215.55 65.2874C215.864 64.5052 216.314 63.9086 216.897 63.4976C217.484 63.0866 218.185 62.8811 219 62.8811C219.815 62.8811 220.516 63.0866 221.103 63.4976C221.689 63.9086 222.139 64.5052 222.45 65.2874C222.765 66.0696 222.922 67.0142 222.922 68.1212C222.922 69.2348 222.765 70.186 222.45 70.9749C222.139 71.7604 221.689 72.3603 221.103 72.7746C220.52 73.1889 219.819 73.396 219 73.396ZM219 71.8399C219.636 71.8399 220.138 71.5267 220.506 70.9003C220.877 70.2706 221.063 69.3442 221.063 68.1212C221.063 67.3125 220.979 66.633 220.81 66.0828C220.64 65.5326 220.402 65.1183 220.094 64.8399C219.785 64.5582 219.421 64.4173 219 64.4173C218.367 64.4173 217.866 64.7322 217.498 65.3619C217.131 65.9884 216.945 66.9081 216.942 68.1212C216.938 68.9332 217.02 69.616 217.185 70.1695C217.354 70.723 217.593 71.1406 217.901 71.4223C218.209 71.7007 218.576 71.8399 219 71.8399ZM228.338 73.396C227.519 73.396 226.816 73.1889 226.23 72.7746C225.646 72.357 225.197 71.7554 224.883 70.9699C224.571 70.1811 224.415 69.2315 224.415 68.1212C224.418 67.0109 224.576 66.0663 224.887 65.2874C225.202 64.5052 225.651 63.9086 226.235 63.4976C226.821 63.0866 227.522 62.8811 228.338 62.8811C229.153 62.8811 229.854 63.0866 230.441 63.4976C231.027 63.9086 231.476 64.5052 231.788 65.2874C232.103 66.0696 232.26 67.0142 232.26 68.1212C232.26 69.2348 232.103 70.186 231.788 70.9749C231.476 71.7604 231.027 72.3603 230.441 72.7746C229.857 73.1889 229.156 73.396 228.338 73.396ZM228.338 71.8399C228.974 71.8399 229.476 71.5267 229.844 70.9003C230.215 70.2706 230.401 69.3442 230.401 68.1212C230.401 67.3125 230.316 66.633 230.147 66.0828C229.978 65.5326 229.74 65.1183 229.432 64.8399C229.123 64.5582 228.759 64.4173 228.338 64.4173C227.705 64.4173 227.204 64.7322 226.836 65.3619C226.468 65.9884 226.283 66.9081 226.28 68.1212C226.276 68.9332 226.357 69.616 226.523 70.1695C226.692 70.723 226.931 71.1406 227.239 71.4223C227.547 71.7007 227.914 71.8399 228.338 71.8399ZM237.484 73.2021V63.0203H241.382C242.118 63.0203 242.729 63.1363 243.216 63.3683C243.707 63.597 244.073 63.9102 244.315 64.308C244.56 64.7057 244.683 65.1565 244.683 65.6602C244.683 66.0745 244.604 66.4292 244.444 66.7242C244.285 67.0158 244.072 67.2528 243.803 67.4351C243.535 67.6174 243.235 67.7483 242.903 67.8279V67.9273C243.265 67.9472 243.611 68.0582 243.942 68.2604C244.277 68.4593 244.551 68.741 244.763 69.1056C244.975 69.4701 245.081 69.911 245.081 70.428C245.081 70.955 244.953 71.4289 244.698 71.8499C244.443 72.2675 244.058 72.5973 243.545 72.8392C243.031 73.0812 242.385 73.2021 241.606 73.2021H237.484ZM239.329 71.661H241.312C241.982 71.661 242.464 71.5334 242.759 71.2781C243.057 71.0196 243.207 70.6882 243.207 70.2838C243.207 69.9822 243.132 69.7104 242.983 69.4685C242.834 69.2232 242.622 69.031 242.346 68.8918C242.071 68.7493 241.743 68.678 241.362 68.678H239.329V71.661ZM239.329 67.3506H241.153C241.471 67.3506 241.758 67.2926 242.013 67.1766C242.269 67.0573 242.469 66.8899 242.615 66.6744C242.764 66.4557 242.839 66.1972 242.839 65.8989C242.839 65.5045 242.699 65.1797 242.421 64.9244C242.146 64.6692 241.737 64.5416 241.193 64.5416H239.329V67.3506ZM255.053 63.0203V73.2021H253.412L248.614 66.2668H248.53V73.2021H246.685V63.0203H248.336L253.129 69.9607H253.218V63.0203H255.053ZM257.062 73.2021V63.0203H260.96C261.696 63.0203 262.307 63.1363 262.795 63.3683C263.285 63.597 263.651 63.9102 263.893 64.308C264.139 64.7057 264.261 65.1565 264.261 65.6602C264.261 66.0745 264.182 66.4292 264.023 66.7242C263.864 67.0158 263.65 67.2528 263.381 67.4351C263.113 67.6174 262.813 67.7483 262.481 67.8279V67.9273C262.843 67.9472 263.189 68.0582 263.52 68.2604C263.855 68.4593 264.129 68.741 264.341 69.1056C264.553 69.4701 264.659 69.911 264.659 70.428C264.659 70.955 264.531 71.4289 264.276 71.8499C264.021 72.2675 263.636 72.5973 263.123 72.8392C262.609 73.0812 261.963 73.2021 261.184 73.2021H257.062ZM258.907 71.661H260.89C261.56 71.661 262.042 71.5334 262.337 71.2781C262.636 71.0196 262.785 70.6882 262.785 70.2838C262.785 69.9822 262.71 69.7104 262.561 69.4685C262.412 69.2232 262.2 69.031 261.925 68.8918C261.649 68.7493 261.321 68.678 260.94 68.678H258.907V71.661ZM258.907 67.3506H260.731C261.05 67.3506 261.336 67.2926 261.591 67.1766C261.847 67.0573 262.047 66.8899 262.193 66.6744C262.342 66.4557 262.417 66.1972 262.417 65.8989C262.417 65.5045 262.278 65.1797 261.999 64.9244C261.724 64.6692 261.315 64.5416 260.771 64.5416H258.907V67.3506Z" fill="white"/>
    <path d="M200.433 92.2021V82.0203H206.817V83.3428H201.97V86.445H206.484V87.7625H201.97V90.8797H206.876V92.2021H200.433ZM209.923 84.5658L211.608 87.5388L213.308 84.5658H214.934L212.553 88.384L214.954 92.2021H213.328L211.608 89.3485L209.893 92.2021H208.262L210.639 88.384L208.292 84.5658H209.923ZM216.46 95.0658V84.5658H217.912V85.8037H218.036C218.123 85.6446 218.247 85.4607 218.409 85.2519C218.572 85.0431 218.797 84.8608 219.085 84.705C219.374 84.5459 219.755 84.4664 220.229 84.4664C220.845 84.4664 221.396 84.6221 221.88 84.9337C222.363 85.2452 222.743 85.6943 223.018 86.281C223.296 86.8676 223.436 87.5736 223.436 88.3989C223.436 89.2242 223.298 89.9318 223.023 90.5218C222.748 91.1084 222.37 91.5608 221.889 91.879C221.409 92.1939 220.86 92.3513 220.244 92.3513C219.78 92.3513 219.4 92.2734 219.105 92.1176C218.814 91.9619 218.585 91.7796 218.419 91.5708C218.254 91.3619 218.126 91.1763 218.036 91.0139H217.947V95.0658H216.46ZM217.917 88.384C217.917 88.9209 217.995 89.3915 218.151 89.7959C218.307 90.2003 218.532 90.5168 218.827 90.7455C219.122 90.9709 219.483 91.0835 219.911 91.0835C220.355 91.0835 220.726 90.9659 221.024 90.7306C221.323 90.4919 221.548 90.1688 221.701 89.7611C221.856 89.3534 221.934 88.8944 221.934 88.384C221.934 87.8802 221.858 87.4278 221.706 87.0267C221.556 86.6257 221.331 86.3092 221.029 86.0771C220.731 85.8451 220.358 85.7291 219.911 85.7291C219.48 85.7291 219.115 85.8402 218.817 86.0622C218.522 86.2843 218.298 86.5942 218.146 86.9919C217.993 87.3896 217.917 87.8537 217.917 88.384ZM225.101 92.2021V84.5658H226.588V92.2021H225.101ZM225.852 83.3875C225.593 83.3875 225.371 83.3013 225.186 83.129C225.003 82.9533 224.912 82.7445 224.912 82.5026C224.912 82.2573 225.003 82.0485 225.186 81.8762C225.371 81.7005 225.593 81.6127 225.852 81.6127C226.11 81.6127 226.331 81.7005 226.513 81.8762C226.699 82.0485 226.791 82.2573 226.791 82.5026C226.791 82.7445 226.699 82.9533 226.513 83.129C226.331 83.3013 226.11 83.3875 225.852 83.3875ZM228.587 92.2021V84.5658H230.024V85.7789H230.104C230.243 85.3679 230.488 85.0447 230.84 84.8094C231.194 84.5708 231.595 84.4514 232.043 84.4514C232.135 84.4514 232.245 84.4548 232.371 84.4614C232.5 84.468 232.601 84.4763 232.674 84.4862V85.9081C232.614 85.8915 232.508 85.8733 232.356 85.8534C232.203 85.8302 232.051 85.8186 231.899 85.8186C231.547 85.8186 231.234 85.8932 230.959 86.0423C230.687 86.1882 230.472 86.392 230.313 86.6539C230.153 86.9124 230.074 87.2074 230.074 87.5388V92.2021H228.587ZM236.978 92.3563C236.226 92.3563 235.578 92.1955 235.034 91.874C234.494 91.5492 234.076 91.0935 233.781 90.5068C233.49 89.9169 233.344 89.2258 233.344 88.4337C233.344 87.6515 233.49 86.9621 233.781 86.3655C234.076 85.7689 234.487 85.3032 235.014 84.9685C235.545 84.6337 236.165 84.4664 236.874 84.4664C237.305 84.4664 237.722 84.5376 238.127 84.6801C238.531 84.8227 238.894 85.0464 239.215 85.3513C239.537 85.6562 239.79 86.0523 239.976 86.5395C240.162 87.0234 240.255 87.6117 240.255 88.3044V88.8314H234.184V87.7178H238.798C238.798 87.3267 238.718 86.9803 238.559 86.6787C238.4 86.3738 238.176 86.1335 237.888 85.9578C237.603 85.7822 237.268 85.6943 236.884 85.6943C236.466 85.6943 236.102 85.7971 235.79 86.0026C235.482 86.2048 235.243 86.4699 235.074 86.798C234.908 87.1228 234.826 87.4758 234.826 87.857V88.727C234.826 89.2374 234.915 89.6716 235.094 90.0296C235.276 90.3875 235.53 90.661 235.855 90.8499C236.179 91.0355 236.559 91.1283 236.993 91.1283C237.275 91.1283 237.532 91.0885 237.764 91.009C237.996 90.9261 238.196 90.8035 238.365 90.6411C238.534 90.4787 238.664 90.2781 238.753 90.0395L240.16 90.2931C240.047 90.7074 239.845 91.0703 239.554 91.3818C239.265 91.6901 238.902 91.9304 238.465 92.1027C238.031 92.2718 237.535 92.3563 236.978 92.3563ZM244.762 92.3513C244.146 92.3513 243.596 92.1939 243.112 91.879C242.631 91.5608 242.253 91.1084 241.978 90.5218C241.707 89.9318 241.571 89.2242 241.571 88.3989C241.571 87.5736 241.708 86.8676 241.983 86.281C242.262 85.6943 242.643 85.2452 243.127 84.9337C243.611 84.6221 244.159 84.4664 244.772 84.4664C245.246 84.4664 245.628 84.5459 245.916 84.705C246.208 84.8608 246.433 85.0431 246.592 85.2519C246.754 85.4607 246.88 85.6446 246.97 85.8037H247.059V82.0203H248.546V92.2021H247.094V91.0139H246.97C246.88 91.1763 246.751 91.3619 246.582 91.5708C246.416 91.7796 246.188 91.9619 245.896 92.1176C245.604 92.2734 245.227 92.3513 244.762 92.3513ZM245.091 91.0835C245.518 91.0835 245.879 90.9709 246.174 90.7455C246.473 90.5168 246.698 90.2003 246.851 89.7959C247.006 89.3915 247.084 88.9209 247.084 88.384C247.084 87.8537 247.008 87.3896 246.856 86.9919C246.703 86.5942 246.479 86.2843 246.184 86.0622C245.889 85.8402 245.525 85.7291 245.091 85.7291C244.643 85.7291 244.27 85.8451 243.972 86.0771C243.674 86.3092 243.448 86.6257 243.296 87.0267C243.147 87.4278 243.072 87.8802 243.072 88.384C243.072 88.8944 243.148 89.3534 243.301 89.7611C243.453 90.1688 243.679 90.4919 243.977 90.7306C244.279 90.9659 244.65 91.0835 245.091 91.0835Z" fill="#808191"/>
    </svg>
    